<svg xmlns="http://www.w3.org/2000/svg" xmlns:xlink="http://www.w3.org/1999/xlink" xmlns:a="http://ns.adobe.com/AdobeSVGViewerExtensions/3.0/"><defs>


</defs><symbol id="camera" viewBox="0 0 32 22">

<g transform="translate(0 192)">
	<path d="M26-182l6-4v16l-6-4V-182z M24-182v8c0,2.2-1.8,4-4,4H4c-2.2,0-4-1.8-4-4v-8c0-2.2,1.8-4,4-4h10c0-1.1,0.9-2,2-2v-2H5
		c-0.6,0-1-0.4-1-1c0-0.6,0.4-1,1-1h12c0.6,0,1,0.4,1,1v3c1.1,0,2,0.9,2,2C22.2-186,24-184.2,24-182z M12-182H4v8h8V-182z M20-181
		c0-0.6-0.4-1-1-1h-4c-0.6,0-1,0.4-1,1c0,0.6,0.4,1,1,1h4C19.6-180,20-180.4,20-181z"/>
</g>
</symbol><symbol id="cart" viewBox="0 0 20.3 18.8">
<style type="text/css">
	.st0{fill:#231F20;}
</style>

<path class="st0" d="M19.5,7.2h-3.2L13,0.4c-0.2-0.4-0.6-0.5-1-0.3c-0.4,0.2-0.5,0.6-0.3,1l3.1,6.1H5.6l3.1-6.1c0.2-0.4,0-0.8-0.3-1
	c-0.4-0.2-0.8,0-1,0.3L3.9,7.2H0.8C0.3,7.2,0,7.6,0,8c0,0.4,0.3,0.8,0.8,0.8h0.2l0.9,3c-0.2,0.1-0.3,0.3-0.3,0.6
	c0,0.4,0.3,0.7,0.7,0.7l1.7,5.8h12.7l1.7-5.8c0.4,0,0.7-0.3,0.7-0.7c0-0.2-0.1-0.5-0.3-0.6l0.9-3h0.2c0.4,0,0.8-0.3,0.8-0.8
	C20.3,7.6,20,7.2,19.5,7.2z M15.4,17.3H4.9l-1.2-4.3h12.9L15.4,17.3z M17,11.6H3.3L2.5,8.7h15.4L17,11.6z"/>
</symbol><symbol id="email" viewBox="0 0 32 21">
<style type="text/css">
	.st0{fill:#231F20;}
	.st1{stroke:#231F20;stroke-miterlimit:10;}
	.st2{fill:#63D1BB;}
	.st3{fill:#FFFFFF;}
	.st4{fill:#6BC6B3;}
	.st5{fill:#333333;}
</style>
<path id="mail" class="st5" d="M28,0H4C1.8,0,0,1.8,0,4v13c0,2.2,1.8,4,4,4h24c2.2,0,4-1.8,4-4V4C32,1.8,30.2,0,28,0z M2,5.3l7,5.3
	l-7,5.3V5.3z M30,17c0,1.1-0.9,2-2,2H4c-1.1,0-2-0.9-2-2l7.8-5.9l4.4,3.3c0.5,0.4,1.2,0.6,1.8,0.6c0.6,0,1.3-0.2,1.8-0.6l4.4-3.3
	L30,17L30,17z M30,15.8l-7-5.3l7-5.3V15.8z M17.2,13.6C16.8,13.9,16.4,14,16,14c-0.4,0-0.9-0.1-1.2-0.4l-4.1-3.1L9.8,9.9L2,4v0
	c0-1.1,0.9-2,2-2h24c1.1,0,2,0.9,2,2L17.2,13.6z"/>
</symbol><symbol id="facebook" viewBox="0 0 14.96 27.72">
    <title>facebook</title>
    <path d="M11.66,5.19a6.63,6.63,0,0,0,2.68-.3,8,8,0,0,0,.62-3c-.19,0-.06-.33-.21-.39s-.27-.2-.3-.4c-.28-.17-.46-.43-.73-.6L11.56,0A13.35,13.35,0,0,0,9,.11,6.62,6.62,0,0,0,3.72,2.5c0,.08,0,.2-.1.2C3,4.29,3.49,6.32,3.41,8.28c.1.44.11,1,.21,1.4a20.24,20.24,0,0,1-3.41.5C-.1,10.5,0,11.26,0,11.87a14.76,14.76,0,0,0,.41,1.59,3.28,3.28,0,0,0,.83.5c.06,0,.07.08.1.1.5.27,1.45,0,2.27.1-.14,2,.25,3.92,0,5.68,0,.33.29.38.2.8A8.4,8.4,0,0,0,4,23.33a2.55,2.55,0,0,0-.41,1.79c.12,0,.11.16.1.3-.07.47.64.18.52.7.16.46-.43.18-.42.5v.89a5.74,5.74,0,0,0,2.27.2c.91-.42,2.19-.47,2.79-1.19a1.29,1.29,0,0,0,1.23-.2c0-.32.28-.33.21-.7s-.17-.5-.1-.9V21.83c-.21-2.29-.05-4.93-.31-7.17a9.38,9.38,0,0,0,2.58-.4A5,5,0,0,0,13,12.37a1.59,1.59,0,0,0,.21-1c.19-.21.07-.73.1-1.1-.14-.59-.17-1.3-.82-1.39-.89-.24-2.05.59-3,.3,0-1.14-.3-2.34,0-3.39C10.24,5.61,10.94,5.39,11.66,5.19ZM7.84,10a4,4,0,0,0,.42.69c.08,0,.2,0,.2.1a10.2,10.2,0,0,0,3.1-.3A7.44,7.44,0,0,1,11,13a9.64,9.64,0,0,1-2,.19c-.27.17-.37.51-.62.7-.05.44.15.5,0,.8-.2.14-.05.61-.2.8V17c.08.28-.15.26-.1.5v3.49c-.09.28.14.26.1.5v3c.06.28-.13.8.1.9-.07.37-.41,0-.82.1a7.8,7.8,0,0,1-1.55.4,2.74,2.74,0,0,0,.31-1.1c0-.38-.37-.31-.52-.49.2-.65.57-1.12.73-1.8.19-.51.71-1.29.31-1.79-.53-.11-.53.29-.83.4,0,.08,0,.19-.1.2s0,.19-.11.2-.15.06,0,0,0-.2.11-.2,0-.2.1-.2v-.3a5.77,5.77,0,0,0,.83-2,5,5,0,0,0,.41-1,1.3,1.3,0,0,0,.1-1.2,1,1,0,0,0-.93.7c-.32-.19.16-.43.11-.7.13-.23.17-.56.31-.79.2-.42.56-1.31,0-1.6a.67.67,0,0,0-.73.5,1.41,1.41,0,0,0-.51.7c-.38-.07-.15-.73-.21-1.1s.12-.9,0-1.19c-.56-.8-2-.11-3.2-.3a2.32,2.32,0,0,1-.1-1.2c1.05-.09,2.48.2,3.2-.2,0-.08,0-.2.1-.2.09-.72-.27-1-.51-1.39a17,17,0,0,0,.1-3c.23-.14.33-.42.51-.6.12-1,.68-1.48.73-2.49-.28,0-.61-.06-.62.2-.3-.12-.38.48-.52.2-.11-.54.25-.63.31-1,.6-.42,1.21-.82,1.86-1.2,1.74-.24,4.65-.44,6.08.2,0,.62-.28.86-.2,1.5H11.56a29.11,29.11,0,0,0-3,1c-.24.06-.28.33-.52.39a5.08,5.08,0,0,1-.31,1C7.66,7.43,7.87,8.59,7.84,10Z"/>
</symbol><symbol id="icon-1" viewBox="0 0 31.97 37.3"><title>icon-1</title><path d="M16,37.3a16,16,0,0,0,16-16A16,16,0,0,0,16,37.3ZM4.63,16.43a4.44,4.44,0,0,0,7,3.66l0,.34a4.45,4.45,0,0,0,8.89,0l0-.34a4.37,4.37,0,0,0,2.51.78,4.43,4.43,0,0,0,1.9-8.44,4.43,4.43,0,1,0-4.41-7.65l0-.34a4.45,4.45,0,0,0-8.89,0l0,.34A4.37,4.37,0,0,0,9.07,4a4.43,4.43,0,0,0-1.9,8.43A4.42,4.42,0,0,0,4.63,16.43ZM16,8a4.44,4.44,0,1,1-4.45,4.44A4.44,4.44,0,0,1,16,8ZM0,21.31a16,16,0,0,0,16,16A16,16,0,0,0,0,21.31Z"/></symbol><symbol id="icon-2" viewBox="0 0 34.37 34.37"><title>icon-2</title><path d="M.29,14.07a17.11,17.11,0,0,0,0,6.3l4.12-3.21Z"/><path d="M24.4,1.59A17.2,17.2,0,0,0,9.15,2l7.51,5.63Z"/><path d="M33.9,13.17l-4.81,3.75L34,20.62A17.34,17.34,0,0,0,33.9,13.17Z"/><path d="M9.21,32.41a17.22,17.22,0,0,0,15.73.12l-8.1-6.06Z"/><path d="M7.91,14.43,1.68,9.77a17.18,17.18,0,0,0-.82,2.05l5.3,4Z"/><path d="M18.59,25.1l8.34,6.24c.28-.19.55-.39.82-.6s.62-.5.92-.77l-8.33-6.23Z"/><path d="M11.41,11.71,4,6.16A19,19,0,0,0,2.73,7.88l6.93,5.19Z"/><path d="M22.09,22.38l8.09,6.05a15,15,0,0,0,1.3-1.7L23.84,21Z"/><path d="M14.91,9,7.2,3.2l-.58.43c-.39.31-.77.63-1.13,1l7.67,5.74Z"/><path d="M25.59,19.65l7,5.22a17.15,17.15,0,0,0,.86-2l-6.08-4.55Z"/><path d="M26.45,2.71.88,22.63a17.13,17.13,0,0,0,.84,2.06L28.24,4A16.07,16.07,0,0,0,26.45,2.71Z"/><path d="M30.74,6.62c-.3-.38-.61-.75-.94-1.1l-27,21.05c.26.4.54.79.84,1.18l.43.53,27.1-21.1C31,7,30.89,6.81,30.74,6.62Z"/><path d="M32.3,9,5.55,29.84a18.44,18.44,0,0,0,1.71,1.38L33.22,11A17,17,0,0,0,32.3,9Z"/></symbol><symbol id="icon-3" viewBox="0 0 46.58 27.33"><title>icon-icon-3</title><path d="M42.67,0H3.9A3.91,3.91,0,0,0,0,3.9V23.43a3.91,3.91,0,0,0,3.9,3.9H42.67a3.91,3.91,0,0,0,3.91-3.9V3.9A3.91,3.91,0,0,0,42.67,0ZM3,25V2.72H43.23V25Z"/><path d="M6.93,21.05H39.32V6.62H6.93ZM23.29,8.52A5.32,5.32,0,1,1,18,13.83,5.31,5.31,0,0,1,23.29,8.52Z"/></symbol><symbol id="icon-4" viewBox="0 0 54.16 23.18"><title>icon-4</title><path d="M40.31,5.71A47.8,47.8,0,0,0,28,4.05a46.38,46.38,0,0,0-7.71.62L13.46,0H0L5.81,6.19h8.45A22,22,0,0,0,7.5,9.7v3.78A24.33,24.33,0,0,0,14.43,17H5.81L0,23.18H13.46l6.81-4.69a44,44,0,0,0,7.68.65,48.22,48.22,0,0,0,12.36-1.67,10.7,10.7,0,0,1-1.92-5.87A10.66,10.66,0,0,1,40.31,5.71Z"/><path d="M43.73,6.75a7.87,7.87,0,0,0-2,4.84,7.79,7.79,0,0,0,2,4.84,48.43,48.43,0,0,0,10.42-4.84A48.38,48.38,0,0,0,43.73,6.75Z"/></symbol><symbol id="icon-5" viewBox="0 0 33.05 27.86"><title>icon-5</title><path d="M33.05,8.74A8.74,8.74,0,0,0,16.52,4.79,8.73,8.73,0,0,0,0,8.74c0,9.12,14.66,19.12,16.52,19.12S33.05,17.91,33.05,8.74Z"/></symbol><symbol id="icon-6" viewBox="0 0 32.67 32.49"><title>icon-6</title><path d="M2.89,32.49H15.4V18.58H2.89ZM31.08,8.87H23.74A10.81,10.81,0,0,0,25.14,8a5.06,5.06,0,0,0,2.42-4,3.87,3.87,0,0,0-1.36-2.9,4.61,4.61,0,0,0-3-1.12,6,6,0,0,0-3.32,1.07,10.62,10.62,0,0,0-3.42,4.07l-.12.23a11.9,11.9,0,0,0-1-1.79,9.74,9.74,0,0,0-2.49-2.51A6,6,0,0,0,9.46,0,4.59,4.59,0,0,0,6.31,1.3,4.31,4.31,0,0,0,4.9,4.43a4,4,0,0,0,.65,2.19A6.53,6.53,0,0,0,8.18,8.87H1.59A1.59,1.59,0,0,0,0,10.46v5.89H15.4V8.87h1.87v7.48h15.4V10.46a1.59,1.59,0,0,0-1.59-1.59M8.71,6.53A3.63,3.63,0,0,1,7.5,5.39a1.75,1.75,0,0,1-.3-1A2.09,2.09,0,0,1,7.89,3,2.36,2.36,0,0,1,9.45,2.3h0a3.68,3.68,0,0,1,2,.68,8.41,8.41,0,0,1,2.65,3.19A10.64,10.64,0,0,1,15,8.26,14.9,14.9,0,0,1,8.71,6.53M19.25,4.9A7.36,7.36,0,0,1,21.14,3a3.69,3.69,0,0,1,2.05-.68h0a2.32,2.32,0,0,1,1.5.55A1.58,1.58,0,0,1,25.26,4c0,.51-.27,1.26-1.47,2.13a15.74,15.74,0,0,1-6.12,2.27A10.6,10.6,0,0,1,19.25,4.9m-2,27.59H29.78V18.58H17.27Z"/></symbol><symbol id="instagram" viewBox="0 0 21.77 21.33">
    <path d="M21.77 12.15c0-2.4-.35-4.79-.31-7.14 0-.79-.08-1.53-.15-2.28a5.64 5.64 0 0 1-.15-1.06c-.26-.17-.22-.67-.46-.84A7.66 7.66 0 0 0 19 .61c-.66 0-1.26-.12-1.9-.16-1.94-.1-4-.07-6-.07A43.92 43.92 0 0 1 5.37 0h-2.2c-.1 0-.11.1-.23.08a8.57 8.57 0 0 0-1.6.3 2.8 2.8 0 0 1-.68.3c-.14.2-.51.15-.61.38s.19.45 0 .61v.91c.18.13 0 .58.08.84v1c0 1.28.13 2.4.08 3.72a39 39 0 0 1 .07 9.42 14.73 14.73 0 0 1 .46 1.74 7 7 0 0 0 .68 1.52 6.47 6.47 0 0 0 1.9.23 4.13 4.13 0 0 0 1.14.3c2.84-.21 5.49-.15 8.42-.22a35 35 0 0 0 8.28-.23c.19-.14.13-.53.23-.76-.06-.39.2-.45.22-.76.14-2.38.17-4.81.16-7.23zm-13-6.23a9.45 9.45 0 0 1 2.43-.3 10.57 10.57 0 0 1 1.9.45c.12.19-.24.55.15.69v.07c.06 0 .15 0 .16.08a1.9 1.9 0 0 1 1.06.38c.45 0 .53.47 1.14.38a2.13 2.13 0 0 0-.08.83 11.56 11.56 0 0 1 .3 4.25 2.06 2.06 0 0 0-.3.69c-.31.32-.48.78-.83 1.06a1 1 0 0 1-.46.53c-.12.22-.2.45-.46.53s-.57 0-.83-.07a3.43 3.43 0 0 0-1.21.6c-.82-.09-1.65-.17-2.43-.3a2 2 0 0 0-.84-.3 2 2 0 0 0-.83-.49c-.1-.13-.33-.12-.45-.23s-.23-.22-.46-.23c-.11-.41-.44-.61-.53-1.06a5.42 5.42 0 0 1-.45-1.21 13.09 13.09 0 0 1 .38-3.8c.34-.59.78-1.09 1.13-1.67.25 0 .37-.09.38-.3.31 0 .44-.07.69-.08s.26-.36.45-.5zM7.11 3.19A3.54 3.54 0 0 1 7 2.13c0-.29.28-.28.3-.54 0-.07-.09-.05-.15-.07.13-.15.7-.1.83 0 .14.53-.35.45-.53.68 0 .17.33 0 .46.08 0 .85-.06 1.49 0 2.2h-.42c0 .23.23.23.46.23-.06.28.09.36.07.6-.22.16-.71.05-1.06.08-.1-.59.24-1.39.15-2.2zm-.68-1.6c.09 0 .13 0 .15.08.18.25 0 .68-.07.91-.18-.18-.03-.68-.08-.99zm.15 1.83c-.13-.07-.17-.24-.15-.46.13.04.17.24.15.46zm0 1.36c-.06.14-.08 0-.07-.15s.08.05.07.15zM6.43 5c.18 0 .08.22.23.23 0 .19-.28.18-.38.07s.11-.18.15-.3zM4.08 3.79c0-.1 0-.21-.08-.22-.07-.74.13-1.42 0-2 .25-.15.77 0 1.14-.07v1.16a.49.49 0 0 1-.38.07c0 .28.32.13.38.31a9.25 9.25 0 0 0 .15 2.42c-.56 0-.9.11-1.44.08.1-.61 0-1.43.53-1.59-.01-.14-.26-.05-.3-.16zm-.53 0c-.21 0-.22-.53-.08-.6.33 0 .25.5.08.6zm-.16 1a3.25 3.25 0 0 0 .08-.68c.23 0 .26.76-.08.67zm.23-2.05c-.26.06-.27-.26-.15-.38s.27.26.15.37zm0-1.14c0 .16-.05.2-.07.31-.18 0-.09-.22-.23-.23.02-.11.19-.07.3-.09zm-.23 3.71c.15 0 .11.35-.07.23a.32.32 0 0 0 .07-.23zm-.68-3.72c0 .26-.44.32-.38 0zm-1 .08c0 .22-.32.18-.38.38-.2-.17.1-.47.39-.38zm-.45.76c.22-.21.45-.41.68-.61 0-.12.07-.13.08-.23h.23c.1.38-.26.3-.31.53s-.07.14-.07.23a4.44 4.44 0 0 1 .07 1c-.27 0-.27.28-.61.23.04-.44-.12-.69-.06-1.15zm.07 3.26V4.1c.2-.18.4-.36.61-.53.3.49.18 1.39.46 1.89a7 7 0 0 1-1.06.23zm18.23 11.09a20.1 20.1 0 0 1-.37 2.81c-2.89.12-6 0-8.89.15-.2 0-.27 0-.23-.23-.25 0-.25.25-.53.23.2-.34.44-.9.15-1.29-.79 0-.79.82-1.13 1.29-.69 0-1.14.13-1.83.07.18-.7.75-1 .91-1.74-.39-.55-1 .14-1.21.45-.2.48-.56.81-.76 1.29h-1c.24-.46.49-.92.76-1.36s.63-.74.69-1.37c-.16-.28-.42 0-.69 0-.12.18-.27.34-.38.53a9.27 9.27 0 0 0-.68 1.14c-.18.21-.33 0-.53.23-.39.27-.58.73-1 1-.17-.06 0-.36.15-.38.05-.18-.09-.55.08-.61a2.28 2.28 0 0 1 .38-.91c.12-.74.52-1.2.68-1.9-.56.1-.67.64-1 1a6.61 6.61 0 0 0-.69 1.29c-.17-.13 0-.58-.07-.84.12-.58.29-1.12.38-1.74A2.59 2.59 0 0 0 3 15a.71.71 0 0 0-.07-.76.53.53 0 0 0-.46.31c-.19 0-.19.5-.3.3-.05-2.59-.45-4.81-.46-7.44 0-.33-.18-.42-.22-.68 1.62 0 3.12.09 4.78.22a2.85 2.85 0 0 1-.27.41 2 2 0 0 0-.37.31A12.56 12.56 0 0 0 5 13.82a4.48 4.48 0 0 0 1 1.44c.91.48 1.64 1.15 2.51 1.67a14.15 14.15 0 0 0 5.54 0 4.55 4.55 0 0 0 .69-.38c1.36-1.24 2.75-2.46 3-4.86v-1.37a5 5 0 0 0-1.75-3.64c.33-.22 1.1 0 1.67.08h.68a7.78 7.78 0 0 1 1.45 0c.14.18.11.54.22.76-.06 1.68-.19 3.3-.15 5.08.1.46.13 1 .23 1.44a16 16 0 0 1-.53 2.74zm.38-11.16c-.64-.12-1.23-.29-1.89-.38.07-.34.79 0 1-.23.39-.22.3-.92.31-1.52a5.06 5.06 0 0 0 .07-1.06C19 1.48 17.63 2 16.53 2a6 6 0 0 0-.31 2.66c.17.49 1 .29 1.52.46-.14.33-.69 0-1 .07s-.71 0-1-.15c-2.29.08-4.29 0-6.53.15a17 17 0 0 0-.08-3.64h3.12c-.35.36-.92.5-1.29.83a3.22 3.22 0 0 0-1.14.91c.25.14.53-.24.76-.38s.48-.38.83-.45a5.72 5.72 0 0 1 1.67-.91 3.81 3.81 0 0 1 1 .07c1.28 0 2.45.13 3.79.08a13.05 13.05 0 0 1 2 .3 8.08 8.08 0 0 1 .3.91 25.93 25.93 0 0 1-.23 2.71zM14.1 1.9c.11 0 0-.09 0 0zm0 0a3.27 3.27 0 0 0-1.37.68 3.39 3.39 0 0 0 1.37-.68zm1.06.6c.11 0 0-.09 0 0zm-1.74.92a6 6 0 0 0 1.74-.92c-.44 0-.59.32-1 .38-.16.22-.59.26-.74.54zm-.69-.84c-.11 0 0 .09 0 0zm-.68.61c.11 0 0-.09 0 0zm-.05.07c.07 0 .07 0 .08-.07s-.08.03-.08.07zm-.07.08c.06 0 .07 0 .07-.08s-.1.03-.1.08zm-.87.66a2.1 2.1 0 0 0 .84-.61 2 2 0 0 0-.84.61zm2.28 1c.53 0 .75-.41 1.21-.53.29-.3.79-.38 1-.76-.56 0-.76.4-1.21.53-.34.23-.77.35-1 .69zm-2.28-1c-.31-.08 0 .22 0 0zm-.53.38s.11 0 .08-.08-.12-.01-.08.03zm2.81.6c-.11.05 0 .1 0 0zM12.2 6.76c-.22-.24-.68-.24-1-.38a5.13 5.13 0 0 0-1.74.23l-.91.45c-.27.16-.45.42-.76.53s-.35.51-.69.61c0 .22-.17.28-.3.38s-.09.31-.23.38 0 .29-.07.3a18.63 18.63 0 0 0 .68 4.18c.29.62 1 .84 1.44 1.29a6.59 6.59 0 0 0 2.13.53 3.21 3.21 0 0 1 .91-.08 5.05 5.05 0 0 0 2.81-1.44 1.56 1.56 0 0 1 .45-.68c-.25-.67.3-1.1.46-1.6a8.45 8.45 0 0 0-.61-3.41c-.25-.58-.92-.75-1.36-1.14-.06 0-.16 0-.16-.08a1.33 1.33 0 0 0-1.05-.07zm-3.42 4.32c-.11-.06-.11-.24-.15-.38.26-.07.12.24.15.38zm.08.31c0-.12.08 0 .08.07s-.08.01-.08-.07zm.46-2.05c0-.09.07-.05.07 0s-.07.04-.07 0zM11 7.21c-.21.26 0 .58.07.84-.31-.05-.58-.89-.07-.84zm.38 4s.05-.1.07-.08-.06.05-.08.03zm.74 2.79c0-.11.07 0 .16 0a.08.08 0 0 1-.16 0zm2.21-2.58c-.24-.05-.15.21-.38.16a1.63 1.63 0 0 1 .22-.46c.14.06.18.17.16.34zm-1.14-3.75a2.45 2.45 0 0 1 .6.38 2.31 2.31 0 0 0 .38.53 21.7 21.7 0 0 1 .16 2.35c-.26.1-.44.27-.69.38a4.35 4.35 0 0 1-1.89-.45l-.54-.76V9a4.54 4.54 0 0 0 .46-.6c.23-.13.51-.2.45-.61a.45.45 0 0 1-.07-.23c.16 0 .24.16.38.23.32.05.41-.17.76-.12z" data-name="&#x421;&#x43B;&#x43E;&#x439; 1"/>
</symbol><symbol id="logo-bottom" viewBox="0 0 101.6 34.1">
<style type="text/css">
	.st0{fill:#231F20;}
</style>

<g>
	<path class="st0" d="M19.1,21.5c-0.1-2.7-0.5-5.3-0.5-8c0-2.2,0.4-4.4-0.4-6.5c0-0.2,0.1-0.5,0.1-0.7c0.2-1-3.3-0.5-3.8,0.5
		c-0.3,0.3-0.5,0.6-0.4,1c0,0.1,0.1,0.2,0.1,0.3c-0.7,3.2-1.6,6.3-2.6,9.4c-0.4,1.2-0.9,2.3-1.3,3.5c-0.6-1.1-1.2-2.2-1.6-3.4
		c-1.4-3.4-2.6-6.9-4.3-10.2c0.2-1.5-3.2-1.4-3.9,0c-0.8,1.7-0.7,3.4-0.4,5.2c0.3,2,0.4,4,0.4,6.1c0,4,0.4,7.9,0.4,11.9
		c-0.4,0.4-0.5,0.9-0.1,1.4c0.2,0.2,0.4,0.4,0.6,0.5C2.4,33.2,5,32.6,5,31.2c0-4.1-0.3-8.2-0.4-12.4c0-0.4,0-0.8,0-1.2
		c0.1,0.1,0.1,0.3,0.2,0.4c0.6,1.6,1.3,3.2,2.2,4.7c0.9,1.5,1.3,3.1,1.8,4.7c-0.2,0.2-0.3,0.5-0.2,0.7c0,0.2,0.1,0.3,0.3,0.4
		c0.6,0.5,1.8,0.3,2.5,0c0.3-0.1,0.6-0.3,0.8-0.4c0.3-0.2,0.9-0.7,0.7-1.2c0-0.1-0.1-0.2-0.1-0.3c0.5-1.3,0.7-2.6,1-3.9
		c0.3-1.4,0.8-2.8,1.3-4.1c0.1,0.6,0.1,1.2,0.2,1.9c0.2,2.6,0,5.1,0,7.6c0,0.8,0.1,1.6,0.2,2.5c0.1,0.3,0.4,1.8,0.3,1.9
		C15,33,15.2,33.6,16,33.8c0.9,0.2,2.1-0.1,2.8-0.7c1.2-1.1,0.6-2.8,0.4-4.2C18.7,26.5,19.2,23.9,19.1,21.5z"/>
	<path class="st0" d="M27.5,22.2c-0.1-2-0.8-3.9-0.8-5.9c0-2.3,0.2-4.6-0.2-6.9c-0.1-0.7-4.1,0.1-3.9,1c0.3,2.1,0.2,4.2,0.2,6.4
		c0,2,0.5,3.9,0.7,5.9c0.3,2.1-0.1,4.2,0.1,6.2c0.1,1,0.8,2.7,0.1,3.6c-0.4,0.5,1.5,0.3,1.6,0.3c0.8-0.1,1.8-0.4,2.3-1
		c0.7-0.8,0.2-2.4,0.1-3.4C27.4,26.4,27.6,24.2,27.5,22.2z"/>
	<path class="st0" d="M43.8,18.9c-2.1-2.8-5.9-0.8-8.6-1.5c-1.4-0.4-1.4-2.3-1.4-3.4c0-1.4-0.1-2.7-0.3-4.1c-0.1-1.1,0-2.1,0.7-2.9
		c0.1-0.1,0.9-0.3,0.8-0.3c0.4-0.1,0.7-0.1,1.1-0.1c1.5-0.1,4.6,0.2,4,2.5c-0.3,1,3.6,0.4,3.9-0.6c1.2-4.6-7.3-3.7-9.7-3.1
		c-2.2,0.6-4.6,1.8-4.8,4.4c-0.1,1.2,0.3,2.4,0.3,3.6c0.1,1.4-0.2,2.8,0.3,4.1c1.1,3,5.5,1.6,7.8,1.7c3.8,0.3,2.7,5.5,2.7,7.9
		c0,1.3,1.2,3.4,0.2,4.5c-0.6,0.7-2,0.7-2.8,0.8c-0.8,0.1-2.2,0.3-2.7-0.5c-1-1.4,0.1-3.8-0.1-5.4c-0.1-0.9-4.1-0.1-3.9,1
		c0.3,2.6-1.4,6.1,2.4,6.6c2.4,0.3,5.2-0.2,7.5-0.9c1.2-0.4,2.3-0.9,3.2-1.8c1-0.9,0.7-2.3,0.4-3.5C44.3,24.8,45.7,21.4,43.8,18.9z"/>
	<path class="st0" d="M61.2,18.7c-0.1-3.8-0.7-7.5-0.7-11.3c0-2-4-1.3-4,0.3c0,3.6,0.5,7.2,0.7,10.8c0,0.1,0,0.1,0,0.2
		c-1.9,0-3.9,0.2-5.9,0.2c0.2-4.6-0.6-9.2-0.4-13.9c0-0.6-3.9-0.1-3.9,1c-0.2,4.5,0.6,8.9,0.5,13.4c-0.1,2.1-0.2,4.3-0.3,6.4
		c0,1.1,0.2,2.2,0.3,3.3c0.1,1,0.5,2.3,0.2,3.3c-0.2,0.8,3.6,0.3,3.9-0.7c0.5-1.8-0.2-4-0.4-5.8c-0.2-1.7,0-3.5,0.1-5.2
		c2-0.1,4.1-0.3,6.1,0c0.1,1.4,0.2,2.8,0.3,4.1c0.1,1.2,0.2,2.3,0.2,3.5c0,1,0.1,2.5-0.2,3.5c-0.8,2.1,3.1,1.9,3.7,0.4
		c0.7-1.9,0.5-4.2,0.4-6.2C61.6,23.5,61.2,21.1,61.2,18.7z"/>
	<path class="st0" d="M78.1,23.1c-0.9-2.8-2.4-5.2-3.6-7.8c1-1.9,2-3.9,2.9-5.9c0.8-1.8,1.4-3.8,3.1-5.1c0.6-0.4,0.6-0.9-0.3-1
		c-0.9-0.1-2.1,0.2-2.8,0.7C76,5.3,75,6.7,74.3,8.4c-0.9,2.1-1.9,4.1-2.9,6.1c-0.1,0.1-0.1,0.3-0.2,0.4c-0.5,0.3-0.8,0.8-0.6,1.3
		c-0.8,1.6-1.6,3.1-2.5,4.6c-0.3-5.5-1-11.1-1.2-16.6c0-1.3-4-0.5-3.9,1c0.2,6.9,1.2,13.7,1.3,20.6c0,0,0,0,0,0.1
		c-0.3,0.3-0.2,0.5,0.1,0.6c0,1.8-0.1,3.5-0.2,5.3c-0.5,0.7,0.5,1.1,1.1,1.1c0,0,0.1,0,0.1,0c0.7,0,2.6-0.3,2.7-1.4
		c0.2-2.1,0.3-4.2,0.2-6.3c1.6-1.7,2.9-3.6,4.1-5.6c0.8,1.5,1.5,3,2,4.6c0.9,2.7,2.3,5.3,3.1,8c0.5,1.8,4.5,0.7,3.9-1
		C80.4,28.4,79,25.9,78.1,23.1z"/>
	<path class="st0" d="M101.6,18.5c-0.2-0.8-1.4-0.8-2.3-0.8c0-0.3,0-0.7,0-1c-0.1-2.7-0.2-5.4-0.4-8c-0.2-2.5-1.6-3.3-4-3.2
		c-2.4,0.1-5.2,0.5-7.5,1.4c-2.6,1-4.1,2.9-4.6,5.7c-0.5,3,0.2,6.2,0.4,9.2c0.2,3.5,0.1,7,0.1,10.5c0,0.6,3.9,0,3.9-1
		c0-2.8,0-5.6,0-8.3c0-0.8-0.1-1.6-0.1-2.4c1.4-0.6,3.7,0,5.1,0.1c1.1,0.1,2.2-0.2,3.2-0.3c0,2.3,0.1,4.6,0.2,6.9
		c0,1.2,0.5,3.5-0.4,4.5c-0.4,0.5,1.5,0.3,1.6,0.3c0.8-0.1,1.8-0.4,2.3-1c0.9-1.1,0.5-3.8,0.4-5.1c-0.1-1.9-0.1-3.8-0.1-5.7
		C100.5,20.1,101.8,19.4,101.6,18.5z M87,18.4c-0.1-1.2-0.2-2.5-0.3-3.7c-0.2-2.3,0.1-5.6,2.3-7c0.6-0.4,1.7-0.3,2.4-0.4
		c1-0.2,2-0.4,2.8,0.2c1.2,0.8,0.9,3.7,0.9,4.9c0,2,0.2,4,0.3,6c-0.6,0.1-1.1,0.1-1.7,0.1C91.4,18.3,89.1,17.9,87,18.4z"/>
	<path class="st0" d="M24.1,6.7c0.5-0.1,1-0.2,1.5-0.5C25.7,6.1,25.8,6,25.8,6c0.5-0.3,1-0.8,0.7-1.4c-0.5-1.1-0.4-2.2-0.4-3.4
		c0-1-1-1.2-1.8-1.2c-0.7,0.1-2.2,0.6-2.2,1.5c0,1-0.1,2,0.1,3c0,0.1-0.1,0.2-0.1,0.4c-0.1,0.2,0,0.4,0.1,0.6c0,0,0,0.1,0,0.1
		c0,0.1,0,0.2,0,0.3c0.1,0.2,0.2,0.4,0.4,0.5C23.2,6.7,23.7,6.7,24.1,6.7z"/>
</g>
</symbol><symbol id="logo-developer" viewBox="0 0 56.56 71.44"><title>logo-developer</title><path d="M28.57.53l-.29,0L.5,3.42V54.33L28.28,70.86,56.06,54.33V3.42ZM52.43,52.27,28.28,66.63,4.13,52.27V31.4L28.18,45.71l0,2.59-16.5-9.82,0,2.52L28.26,51l0,2.67L11.75,43.77l0,2.52,16.56,10L45,46.24V43.71h0V35.49l7.45-4.44Zm0-23.93L45.8,32.23l-3,1.8L28.21,25.38l0,2.51,12.43,7.4-.11.06-.26.16-1.77,1L28.21,30.44l0,2.52,8.1,4.82-1.91,1.28,0,0-6.12-3.6,0,2.52,4,2.36-4.09,2.46L4.19,28.6l24-14.4h0Zm0-2.53L28.15,11.49h0l-24,14.3V6.69L28.28,4.16,52.43,6.69Z"/></symbol><symbol id="phone" viewBox="0 0 24.8 24.3">
    <path d="M17.3 24.3h-1.1c-4.9-.6-8.5-2.9-11.1-5.8C2.5 15.6.4 11.9 0 6.8V5.4c.1-.9.5-1.5 1.1-2.1.6-.7 1.6-1.5 2.5-1.6.7 0 1.8.5 2.2 1.1.4.5.6 1.6.8 2.4.2.9.6 2 .5 2.8-.2 1.2-1.8 1.7-2.2 2.6 1.6 3.7 4.1 6.5 7.5 8.3.8-.5 1.6-1.9 2.8-1.9.4 0 1 .2 1.4.3.5.1.9.3 1.3.5.7.3 2 .6 2.4 1.2.4.6.7 1.6.6 2.2-.3 1.3-2.4 2.7-3.6 3.1z" id="UrwUhy_2_"/>
    <path d="M12.5 1.5c5.9 0 10.8 4.8 10.8 10.8h1.5C24.8 5.5 19.3 0 12.5 0v1.5zM12.5 9.3v1.6c.8 0 1.4.6 1.4 1.4h1.6c0-1.6-1.3-3-3-3z"/>
    <path d="M12.5 6.2c3.3 0 6.1 2.7 6.1 6.1h1.6c0-4.2-3.4-7.6-7.6-7.6v1.5z"/>
</symbol><symbol id="twitter" viewBox="0 0 23.49 20.17"><title>twitter</title><path d="M23.45,4.08c-.22-.36-.91-.27-1.4-.37H20.93c.15-.35.35-.64.52-1a5.23,5.23,0,0,0,.23-1.26c.12-.17.17-.42.29-.59s.24-.48.08-.67-.3-.25-.6-.22a.48.48,0,0,0-.22.15c-.45.43-.78,1-1.26,1.4,0,0-.06,0-.07,0s0,.05-.08.08-.26.15-.37.22a2.74,2.74,0,0,1-.89.52A6,6,0,0,0,16.71,2a6.37,6.37,0,0,0-3,.74,7.41,7.41,0,0,0-2.15,1.63c0,.32-.34.4-.37.74,0,0,0,.09-.07.08a1.12,1.12,0,0,1-.08.51c0,.14.2.43,0,.52a7.18,7.18,0,0,1-2.14-1A10.1,10.1,0,0,1,6.78,4.16,6.09,6.09,0,0,1,5,2.82c-.21-.31-.54-.49-.66-.89C4,1.77,4.16,1,3.59,1.05c-.31-.05-.34.2-.44.37s-.36.23-.37.51c0,.05,0,.09-.08.08a18.55,18.55,0,0,0-.51,3.26,3.2,3.2,0,0,0,.59,1,1.1,1.1,0,0,0-.89.52,3.73,3.73,0,0,0,.74,2.29,3,3,0,0,0,.59,1c0,.23.21.28.3.44s.12.13.15.22.29.18.07.22c-.41.14-1,.07-1.26.38a1.91,1.91,0,0,0,0,1.11c0,.23.29.26.3.52.5.41,1.08.74,1.63,1.11a16.36,16.36,0,0,0,1.85.37,1.46,1.46,0,0,1-.59.74,19.92,19.92,0,0,1-2.74.74,15,15,0,0,1-1.56.22c-.33.13-.85.08-1.11.22s-.1.1-.22.23a.71.71,0,0,0,.44.89c0,.25.22.27.37.37a.83.83,0,0,0,.45.37,10.58,10.58,0,0,0,1.92,1.11c.83.18,1.65.37,2.52.52s1.9.12,2.82.22h1a10,10,0,0,0,1.85.07c.1-.1.33-.07.52-.07a9.37,9.37,0,0,0,1.63-.74c.58-.24,1-.64,1.56-.89a10.16,10.16,0,0,0,2.52-2.37,1.67,1.67,0,0,0,.44-.74c.27-.16.39-.46.6-.67a9.82,9.82,0,0,0,1-1.41c.32-.49.58-1,.89-1.55,0-.41.31-.49.3-.89.19-.23.18-.67.37-.89a1.37,1.37,0,0,1,.08-.6,12.33,12.33,0,0,0-.3-3.4,5.93,5.93,0,0,0,1.63-.6C23.16,5.16,23.64,4.76,23.45,4.08ZM20,8.16a4.7,4.7,0,0,1-1,2c.06.38-.11.54-.08.89a4.88,4.88,0,0,0-.37,1c-.2.26-.33.6-.52.89-.36.54-.77,1-1.18,1.55A18.83,18.83,0,0,1,15.52,16c-.42.5-.94.89-1.4,1.34a4.85,4.85,0,0,0-1.26.66,4.11,4.11,0,0,0-.67.3c-.18.15-.5.15-.67.3A25.2,25.2,0,0,1,8,18.76a25.49,25.49,0,0,1-3-.38,11.73,11.73,0,0,1-2.3-1c.15-.24.64-.16,1-.22,0-.17.4,0,.45-.15.26.06.28-.11.52-.08a9.44,9.44,0,0,0,1.7-.59c.28-.14.41-.43.67-.59a.74.74,0,0,1,.22-.45,2,2,0,0,0,.15-.81c.11-.21.3-.34.3-.67-.08-.15-.13-.32-.3-.37s-.38-.07-.45-.22a1.34,1.34,0,0,1-.59-.08c-.15,0-.48.09-.52-.07a3.57,3.57,0,0,1-1.85-.74c.43-.26,1-.35,1.33-.74.52-.08,1.06-.13,1.12-.67,0-.72-.77-.66-1.34-.81A12.69,12.69,0,0,1,3.22,7.57c.24-.16.57-.23.74-.45.46.06.54-.25.67-.52,0-.49-.33-.6-.59-.81a3.38,3.38,0,0,1-.67-.74,18.08,18.08,0,0,1,.08-2.37c.06,0,.07,0,.07.07.23.44.56.77.82,1.18A8.76,8.76,0,0,0,5.89,5.05c.45.41,1.11.62,1.56,1A17,17,0,0,1,9.15,7c.67.2,1.06.68,2,.6l.6-.3c.25-.46-.06-1.08.14-1.63a4.42,4.42,0,0,1,1.26-1.48A9.54,9.54,0,0,0,14,3.64a5.18,5.18,0,0,0,1-.37,6.34,6.34,0,0,0,1-.15h1.26a7.43,7.43,0,0,0,.74.15,1.82,1.82,0,0,0,.67.37,4.45,4.45,0,0,1,1.4,3A12.13,12.13,0,0,0,20,8.16Zm.3-5.63c-.13.34-.23.7-.59.81,0-.1-.12-.12-.15-.22s.21-.19.3-.3.24-.24.44-.29C20.33,2.44,20.45,2.48,20.34,2.53Zm-5.48,3a1.44,1.44,0,0,0,.52.37.72.72,0,0,0,.59.37c0-.15.35,0,.37-.23.17,0,.17-.22.3-.29a2.42,2.42,0,0,0-.37-1.34A.94.94,0,0,0,14.86,5.57Z"/></symbol></svg>