<!-- Generator: Adobe Illustrator 22.0.1, SVG Export Plug-In  -->
<svg version="1.1"
	 xmlns="http://www.w3.org/2000/svg" xmlns:xlink="http://www.w3.org/1999/xlink" xmlns:a="http://ns.adobe.com/AdobeSVGViewerExtensions/3.0/"
	 x="0px" y="0px" width="20.3px" height="18.8px" viewBox="0 0 20.3 18.8" style="enable-background:new 0 0 20.3 18.8;"
	 xml:space="preserve">
<style type="text/css">
	.st0{fill:#231F20;}
</style>
<defs>
</defs>
<path class="st0" d="M19.5,7.2h-3.2L13,0.4c-0.2-0.4-0.6-0.5-1-0.3c-0.4,0.2-0.5,0.6-0.3,1l3.1,6.1H5.6l3.1-6.1c0.2-0.4,0-0.8-0.3-1
	c-0.4-0.2-0.8,0-1,0.3L3.9,7.2H0.8C0.3,7.2,0,7.6,0,8c0,0.4,0.3,0.8,0.8,0.8h0.2l0.9,3c-0.2,0.1-0.3,0.3-0.3,0.6
	c0,0.4,0.3,0.7,0.7,0.7l1.7,5.8h12.7l1.7-5.8c0.4,0,0.7-0.3,0.7-0.7c0-0.2-0.1-0.5-0.3-0.6l0.9-3h0.2c0.4,0,0.8-0.3,0.8-0.8
	C20.3,7.6,20,7.2,19.5,7.2z M15.4,17.3H4.9l-1.2-4.3h12.9L15.4,17.3z M17,11.6H3.3L2.5,8.7h15.4L17,11.6z"/>
</svg>
