<svg xmlns="http://www.w3.org/2000/svg" viewBox="0 0 56.56 71.44"><title>logo-developer</title><path d="M28.57.53l-.29,0L.5,3.42V54.33L28.28,70.86,56.06,54.33V3.42ZM52.43,52.27,28.28,66.63,4.13,52.27V31.4L28.18,45.71l0,2.59-16.5-9.82,0,2.52L28.26,51l0,2.67L11.75,43.77l0,2.52,16.56,10L45,46.24V43.71h0V35.49l7.45-4.44Zm0-23.93L45.8,32.23l-3,1.8L28.21,25.38l0,2.51,12.43,7.4-.11.06-.26.16-1.77,1L28.21,30.44l0,2.52,8.1,4.82-1.91,1.28,0,0-6.12-3.6,0,2.52,4,2.36-4.09,2.46L4.19,28.6l24-14.4h0Zm0-2.53L28.15,11.49h0l-24,14.3V6.69L28.28,4.16,52.43,6.69Z" style="stroke:#231f20;stroke-miterlimit:10"/></svg>