<svg xmlns="http://www.w3.org/2000/svg" xmlns:xlink="http://www.w3.org/1999/xlink"><symbol id="arrow-left" viewBox="0 0 50 26"><title>arrow-left</title><g id="&#x421;&#x43B;&#x43E;&#x439;_2" data-name="&#x421;&#x43B;&#x43E;&#x439; 2"><g id="&#x421;&#x43B;&#x43E;&#x439;_1-2" data-name="&#x421;&#x43B;&#x43E;&#x439; 1"><polygon points="50 11 7.66 11 15.83 2.83 13.01 0 0 13 0 13 0 13.01 13.01 26 15.83 23.18 7.66 15 50 15 50 11"/></g></g></symbol><symbol id="arrow-right" viewBox="0 0 50 26"><title>arrow-right</title><g id="&#x421;&#x43B;&#x43E;&#x439;_2" data-name="&#x421;&#x43B;&#x43E;&#x439; 2"><g id="&#x421;&#x43B;&#x43E;&#x439;_1-2" data-name="&#x421;&#x43B;&#x43E;&#x439; 1"><polygon points="0 11 42.34 11 34.17 2.83 36.99 0 50 13 50 13 50 13.01 36.99 26 34.17 23.18 42.34 15 0 15 0 11"/></g></g></symbol><symbol id="camera" viewBox="0 0 32 22"><title>camera</title><g id="&#x421;&#x43B;&#x43E;&#x439;_2" data-name="&#x421;&#x43B;&#x43E;&#x439; 2"><g id="&#x421;&#x43B;&#x43E;&#x439;_1-2" data-name="&#x421;&#x43B;&#x43E;&#x439; 1"><path d="M26,10l6-4V22l-6-4Zm-2,0v8a4,4,0,0,1-4,4H4a4,4,0,0,1-4-4V10A4,4,0,0,1,4,6H14a2,2,0,0,1,2-2V2H5A1,1,0,0,1,5,0H17a1,1,0,0,1,1,1V4a2,2,0,0,1,2,2A4,4,0,0,1,24,10ZM12,10H4v8h8Zm8,1a1,1,0,0,0-1-1H15a1,1,0,0,0,0,2h4A1,1,0,0,0,20,11Z"/></g></g></symbol><symbol id="cart" viewBox="0 0 20.29 18.85"><title>cart</title><g id="&#x421;&#x43B;&#x43E;&#x439;_2" data-name="&#x421;&#x43B;&#x43E;&#x439; 2"><g id="&#x421;&#x43B;&#x43E;&#x439;_1-2" data-name="&#x421;&#x43B;&#x43E;&#x439; 1"><path d="M19.54,7.23H16.39L13,.41a.74.74,0,0,0-1-.33.75.75,0,0,0-.34,1l3.07,6.15H5.58L8.65,1.08a.75.75,0,0,0-.34-1,.74.74,0,0,0-1,.33L3.9,7.23H.75a.75.75,0,0,0,0,1.5H.91l.85,3a.73.73,0,0,0,.38,1.33l1.66,5.8H16.5l1.65-5.8a.73.73,0,0,0,.38-1.33l.86-3h.15a.75.75,0,0,0,0-1.5ZM15.36,17.35H4.93L3.71,13.07H16.59ZM17,11.56H3.28L2.46,8.73H17.82Z" fill="#231f20"/></g></g></symbol><symbol id="facebook" viewBox="0 0 14.96 27.72"><title>facebook</title><g id="&#x421;&#x43B;&#x43E;&#x439;_2" data-name="&#x421;&#x43B;&#x43E;&#x439; 2"><g id="&#x421;&#x43B;&#x43E;&#x439;_1-2" data-name="&#x421;&#x43B;&#x43E;&#x439; 1"><g id="facebook"><path d="M11.66,5.19a6.63,6.63,0,0,0,2.68-.3,8,8,0,0,0,.62-3c-.19,0-.06-.33-.21-.39s-.27-.2-.3-.4c-.28-.17-.46-.43-.73-.6L11.56,0A13.35,13.35,0,0,0,9,.11,6.62,6.62,0,0,0,3.72,2.5c0,.08,0,.2-.1.2C3,4.29,3.49,6.32,3.41,8.28c.1.44.11,1,.21,1.4a20.24,20.24,0,0,1-3.41.5C-.1,10.5,0,11.26,0,11.87a14.76,14.76,0,0,0,.41,1.59,3.28,3.28,0,0,0,.83.5c.06,0,.07.08.1.1.5.27,1.45,0,2.27.1-.14,2,.25,3.92,0,5.68,0,.33.29.38.2.8A8.4,8.4,0,0,0,4,23.33a2.55,2.55,0,0,0-.41,1.79c.12,0,.11.16.1.3-.07.47.64.18.52.7.16.46-.43.18-.42.5v.89a5.74,5.74,0,0,0,2.27.2c.91-.42,2.19-.47,2.79-1.19a1.29,1.29,0,0,0,1.23-.2c0-.32.28-.33.21-.7s-.17-.5-.1-.9V21.83c-.21-2.29-.05-4.93-.31-7.17a9.38,9.38,0,0,0,2.58-.4A5,5,0,0,0,13,12.37a1.59,1.59,0,0,0,.21-1c.19-.21.07-.73.1-1.1-.14-.59-.17-1.3-.82-1.39-.89-.24-2.05.59-3,.3,0-1.14-.3-2.34,0-3.39C10.24,5.61,10.94,5.39,11.66,5.19ZM7.84,10a4,4,0,0,0,.42.69c.08,0,.2,0,.2.1a10.2,10.2,0,0,0,3.1-.3A7.44,7.44,0,0,1,11,13a9.64,9.64,0,0,1-2,.19c-.27.17-.37.51-.62.7-.05.44.15.5,0,.8-.2.14-.05.61-.2.8V17c.08.28-.15.26-.1.5v3.49c-.09.28.14.26.1.5v3c.06.28-.13.8.1.9-.07.37-.41,0-.82.1a7.8,7.8,0,0,1-1.55.4,2.74,2.74,0,0,0,.31-1.1c0-.38-.37-.31-.52-.49.2-.65.57-1.12.73-1.8.19-.51.71-1.29.31-1.79-.53-.11-.53.29-.83.4,0,.08,0,.19-.1.2s0,.19-.11.2-.15.06,0,0,0-.2.11-.2,0-.2.1-.2v-.3a5.77,5.77,0,0,0,.83-2,5,5,0,0,0,.41-1,1.3,1.3,0,0,0,.1-1.2,1,1,0,0,0-.93.7c-.32-.19.16-.43.11-.7.13-.23.17-.56.31-.79.2-.42.56-1.31,0-1.6a.67.67,0,0,0-.73.5,1.41,1.41,0,0,0-.51.7c-.38-.07-.15-.73-.21-1.1s.12-.9,0-1.19c-.56-.8-2-.11-3.2-.3a2.32,2.32,0,0,1-.1-1.2c1.05-.09,2.48.2,3.2-.2,0-.08,0-.2.1-.2.09-.72-.27-1-.51-1.39a17,17,0,0,0,.1-3c.23-.14.33-.42.51-.6.12-1,.68-1.48.73-2.49-.28,0-.61-.06-.62.2-.3-.12-.38.48-.52.2-.11-.54.25-.63.31-1,.6-.42,1.21-.82,1.86-1.2,1.74-.24,4.65-.44,6.08.2,0,.62-.28.86-.2,1.5H11.56a29.11,29.11,0,0,0-3,1c-.24.06-.28.33-.52.39a5.08,5.08,0,0,1-.31,1C7.66,7.43,7.87,8.59,7.84,10Z" fill="#231f20"/></g></g></g></symbol><symbol id="flag" viewBox="0 0 46.68 81.69"><title>flag</title><g id="&#x421;&#x43B;&#x43E;&#x439;_2" data-name="&#x421;&#x43B;&#x43E;&#x439; 2"><g id="&#x421;&#x43B;&#x43E;&#x439;_1-2" data-name="&#x421;&#x43B;&#x43E;&#x439; 1"><g id="miu"><g id="Artboard-1"><g id="editor-flag-triangle-notification-glyph"><path d="M7.78,3.89v38.9l38.9-19.45ZM0,81.69V0H3.8V81.69Z" fill="#63d1bb"/></g></g></g><rect width="3.8" height="81.69" fill="#231f20"/></g></g></symbol><symbol id="icon-1" viewBox="0 0 31.97 37.3"><title>icon-1</title><g id="&#x421;&#x43B;&#x43E;&#x439;_2" data-name="&#x421;&#x43B;&#x43E;&#x439; 2"><g id="Layer_1" data-name="Layer 1"><path d="M16,37.3a16,16,0,0,0,16-16A16,16,0,0,0,16,37.3ZM4.63,16.43a4.44,4.44,0,0,0,7,3.66l0,.34a4.45,4.45,0,0,0,8.89,0l0-.34a4.37,4.37,0,0,0,2.51.78,4.43,4.43,0,0,0,1.9-8.44,4.43,4.43,0,1,0-4.41-7.65l0-.34a4.45,4.45,0,0,0-8.89,0l0,.34A4.37,4.37,0,0,0,9.07,4a4.43,4.43,0,0,0-1.9,8.43A4.42,4.42,0,0,0,4.63,16.43ZM16,8a4.44,4.44,0,1,1-4.45,4.44A4.44,4.44,0,0,1,16,8ZM0,21.31a16,16,0,0,0,16,16A16,16,0,0,0,0,21.31Z" fill="#231f20"/></g></g></symbol><symbol id="icon-2" viewBox="0 0 34.37 34.37"><title>icon-2</title><g id="&#x421;&#x43B;&#x43E;&#x439;_2" data-name="&#x421;&#x43B;&#x43E;&#x439; 2"><g id="Layer_1" data-name="Layer 1"><path d="M.29,14.07a17.11,17.11,0,0,0,0,6.3l4.12-3.21Z" fill="#231f20"/><path d="M24.4,1.59A17.2,17.2,0,0,0,9.15,2l7.51,5.63Z" fill="#231f20"/><path d="M33.9,13.17l-4.81,3.75L34,20.62A17.34,17.34,0,0,0,33.9,13.17Z" fill="#231f20"/><path d="M9.21,32.41a17.22,17.22,0,0,0,15.73.12l-8.1-6.06Z" fill="#231f20"/><path d="M7.91,14.43,1.68,9.77a17.18,17.18,0,0,0-.82,2.05l5.3,4Z" fill="#231f20"/><path d="M18.59,25.1l8.34,6.24c.28-.19.55-.39.82-.6s.62-.5.92-.77l-8.33-6.23Z" fill="#231f20"/><path d="M11.41,11.71,4,6.16A19,19,0,0,0,2.73,7.88l6.93,5.19Z" fill="#231f20"/><path d="M22.09,22.38l8.09,6.05a15,15,0,0,0,1.3-1.7L23.84,21Z" fill="#231f20"/><path d="M14.91,9,7.2,3.2l-.58.43c-.39.31-.77.63-1.13,1l7.67,5.74Z" fill="#231f20"/><path d="M25.59,19.65l7,5.22a17.15,17.15,0,0,0,.86-2l-6.08-4.55Z" fill="#231f20"/><path d="M26.45,2.71.88,22.63a17.13,17.13,0,0,0,.84,2.06L28.24,4A16.07,16.07,0,0,0,26.45,2.71Z" fill="#231f20"/><path d="M30.74,6.62c-.3-.38-.61-.75-.94-1.1l-27,21.05c.26.4.54.79.84,1.18l.43.53,27.1-21.1C31,7,30.89,6.81,30.74,6.62Z" fill="#231f20"/><path d="M32.3,9,5.55,29.84a18.44,18.44,0,0,0,1.71,1.38L33.22,11A17,17,0,0,0,32.3,9Z" fill="#231f20"/></g></g></symbol><symbol id="icon-3" viewBox="0 0 46.58 27.33"><title>icon-3</title><g id="&#x421;&#x43B;&#x43E;&#x439;_2" data-name="&#x421;&#x43B;&#x43E;&#x439; 2"><g id="Money"><path d="M42.67,0H3.9A3.91,3.91,0,0,0,0,3.9V23.43a3.91,3.91,0,0,0,3.9,3.9H42.67a3.91,3.91,0,0,0,3.91-3.9V3.9A3.91,3.91,0,0,0,42.67,0Zm.56,25H3V2.72H43.23Z"/><path d="M39.32,6.62H6.93V21.05H39.32Zm-16,12.53a5.32,5.32,0,1,1,5.31-5.32A5.32,5.32,0,0,1,23.29,19.15Z"/></g></g></symbol><symbol id="icon-4" viewBox="0 0 54.16 23.18"><title>icon-4</title><g id="&#x421;&#x43B;&#x43E;&#x439;_2" data-name="&#x421;&#x43B;&#x43E;&#x439; 2"><g id="Layer_1" data-name="Layer 1"><path d="M40.31,5.71A47.8,47.8,0,0,0,28,4.05a46.38,46.38,0,0,0-7.71.62L13.46,0H0L5.81,6.19h8.45A22,22,0,0,0,7.5,9.7v3.78A24.33,24.33,0,0,0,14.43,17H5.81L0,23.18H13.46l6.81-4.69a44,44,0,0,0,7.68.65,48.22,48.22,0,0,0,12.36-1.67,10.7,10.7,0,0,1-1.92-5.87A10.66,10.66,0,0,1,40.31,5.71Z"/><path d="M43.73,6.75a7.87,7.87,0,0,0-2,4.84,7.79,7.79,0,0,0,2,4.84,48.43,48.43,0,0,0,10.42-4.84A48.38,48.38,0,0,0,43.73,6.75Z"/></g></g></symbol><symbol id="icon-5" viewBox="0 0 33.05 27.86"><title>icon-5</title><g id="&#x421;&#x43B;&#x43E;&#x439;_2" data-name="&#x421;&#x43B;&#x43E;&#x439; 2"><g id="Layer_1" data-name="Layer 1"><path d="M33.05,8.74A8.74,8.74,0,0,0,16.52,4.79,8.73,8.73,0,0,0,0,8.74c0,9.12,14.66,19.12,16.52,19.12S33.05,17.91,33.05,8.74Z" fill="#231f20"/></g></g></symbol><symbol id="icon-6" viewBox="239.7 239.8 32.7 32.5">
<path fill="#231F20" d="M242.6,272.2h12.5v-13.9h-12.5V272.2z M270.7,248.6h-7.3c0.5-0.3,1-0.5,1.4-0.8c1.6-1.1,2.4-2.6,2.4-4
	c0-1.2-0.6-2.2-1.4-2.9c-0.8-0.7-1.9-1.1-3-1.1c-1.2,0-2.4,0.4-3.3,1.1c-1.5,1-2.6,2.5-3.4,4.1c0,0.1-0.1,0.2-0.1,0.2
	c-0.3-0.6-0.6-1.2-1-1.8c-0.7-1-1.5-1.9-2.5-2.5c-1-0.6-2.1-1.1-3.3-1.1c-1.2,0-2.3,0.5-3.2,1.3c-0.8,0.8-1.4,1.9-1.4,3.1
	c0,0.7,0.2,1.5,0.6,2.2c0.6,0.9,1.4,1.6,2.6,2.2h-6.6c-0.9,0-1.6,0.7-1.6,1.6v5.9h15.4v-7.5h1.9v7.5h15.4v-5.9
	C272.3,249.3,271.6,248.6,270.7,248.6 M248.4,246.3c-0.6-0.4-1-0.8-1.2-1.1c-0.2-0.4-0.3-0.7-0.3-1c0-0.5,0.2-1,0.7-1.5
	c0.4-0.4,1-0.7,1.6-0.7h0c0.7,0,1.4,0.2,2,0.7c1,0.7,2,1.8,2.6,3.2c0.3,0.7,0.6,1.4,0.8,2.1C251.5,247.7,249.5,247,248.4,246.3
	 M258.9,244.7c0.6-0.8,1.2-1.5,1.9-1.9c0.7-0.5,1.4-0.7,2-0.7h0c0.6,0,1.1,0.2,1.5,0.5c0.4,0.3,0.6,0.7,0.6,1.2
	c0,0.5-0.3,1.3-1.5,2.1c-1.1,0.8-3.1,1.7-6.1,2.3C257.6,247,258.2,245.7,258.9,244.7 M256.9,272.2h12.5v-13.9h-12.5V272.2z"/>
</symbol><symbol id="instagram" viewBox="0 0 21.77 21.33"><title>instagram</title><g id="&#x421;&#x43B;&#x43E;&#x439;_2" data-name="&#x421;&#x43B;&#x43E;&#x439; 2"><g id="&#x421;&#x43B;&#x43E;&#x439;_1-2" data-name="&#x421;&#x43B;&#x43E;&#x439; 1"><g id="instagram"><path d="M21.77,12.15c0-2.4-.35-4.79-.31-7.14,0-.79-.08-1.53-.15-2.28a5.64,5.64,0,0,1-.15-1.06C20.9,1.5,20.94,1,20.7.83A7.66,7.66,0,0,0,19,.61c-.66,0-1.26-.12-1.9-.16-1.94-.1-4-.07-6-.07A43.92,43.92,0,0,1,5.37,0H3.17c-.1,0-.11.1-.23.08a8.57,8.57,0,0,0-1.6.3,2.8,2.8,0,0,1-.68.3C.52.88.15.83.05,1.06s.19.45,0,.61v.91c.18.13,0,.58.08.84v1c0,1.28.13,2.4.08,3.72a39,39,0,0,1,.07,9.42,14.73,14.73,0,0,1,.46,1.74,7,7,0,0,0,.68,1.52,6.47,6.47,0,0,0,1.9.23,4.13,4.13,0,0,0,1.14.3c2.84-.21,5.49-.15,8.42-.22a35,35,0,0,0,8.28-.23c.19-.14.13-.53.23-.76-.06-.39.2-.45.22-.76C21.75,17,21.78,14.57,21.77,12.15Zm-13-6.23a9.45,9.45,0,0,1,2.43-.3,10.57,10.57,0,0,1,1.9.45c.12.19-.24.55.15.69v.07c.06,0,.15,0,.16.08a1.9,1.9,0,0,1,1.06.38c.45,0,.53.47,1.14.38a2.13,2.13,0,0,0-.08.83,11.56,11.56,0,0,1,.3,4.25,2.06,2.06,0,0,0-.3.69c-.31.32-.48.78-.83,1.06a1,1,0,0,1-.46.53c-.12.22-.2.45-.46.53s-.57,0-.83-.07a3.43,3.43,0,0,0-1.21.6c-.82-.09-1.65-.17-2.43-.3a2,2,0,0,0-.84-.3A2,2,0,0,0,7.64,15c-.1-.13-.33-.12-.45-.23s-.23-.22-.46-.23c-.11-.41-.44-.61-.53-1.06a5.42,5.42,0,0,1-.45-1.21,13.09,13.09,0,0,1,.38-3.8c.34-.59.78-1.09,1.13-1.67.25,0,.37-.09.38-.3.31,0,.44-.07.69-.08S8.59,6.06,8.78,5.92ZM7.11,3.19A3.54,3.54,0,0,1,7,2.13c0-.29.28-.28.3-.54,0-.07-.09-.05-.15-.07.13-.15.7-.1.83,0,.14.53-.35.45-.53.68,0,.17.33,0,.46.08,0,.85-.06,1.49,0,2.2H7.49c0,.23.23.23.46.23-.06.28.09.36.07.6-.22.16-.71.05-1.06.08C6.86,4.8,7.2,4,7.11,3.19Zm-.68-1.6c.09,0,.13,0,.15.08.18.25,0,.68-.07.91C6.33,2.4,6.48,1.9,6.43,1.59Zm.15,1.83c-.13-.07-.17-.24-.15-.46C6.56,3,6.6,3.2,6.58,3.42Zm0,1.36c-.06.14-.08,0-.07-.15S6.59,4.68,6.58,4.78ZM6.43,5c.18,0,.08.22.23.23,0,.19-.28.18-.38.07S6.39,5.12,6.43,5ZM4.08,3.79c0-.1,0-.21-.08-.22-.07-.74.13-1.42,0-2,.25-.15.77,0,1.14-.07V2.66a.49.49,0,0,1-.38.07c0,.28.32.13.38.31a9.25,9.25,0,0,0,.15,2.42c-.56,0-.9.11-1.44.08.1-.61,0-1.43.53-1.59C4.37,3.81,4.12,3.9,4.08,3.79Zm-.53,0c-.21,0-.22-.53-.08-.6C3.8,3.19,3.72,3.69,3.55,3.79Zm-.16,1a3.25,3.25,0,0,0,.08-.68C3.7,4.11,3.73,4.87,3.39,4.78Zm.23-2.05c-.26.06-.27-.26-.15-.38S3.74,2.62,3.62,2.73Zm0-1.14c0,.16-.05.2-.07.31-.18,0-.09-.22-.23-.23C3.34,1.57,3.51,1.61,3.62,1.59ZM3.39,5.31c.15,0,.11.35-.07.23A.32.32,0,0,0,3.39,5.31ZM2.71,1.59c0,.26-.44.32-.38,0Zm-1,.08c0,.22-.32.18-.38.38C1.13,1.88,1.43,1.58,1.72,1.67Zm-.45.76c.22-.21.45-.41.68-.61,0-.12.07-.13.08-.23h.23c.1.38-.26.3-.31.53s-.07.14-.07.23a4.44,4.44,0,0,1,.07,1c-.27,0-.27.28-.61.23C1.37,3.14,1.21,2.89,1.27,2.43Zm.07,3.26V4.1c.2-.18.4-.36.61-.53.3.49.18,1.39.46,1.89A7,7,0,0,1,1.34,5.69ZM19.56,16.78a20.1,20.1,0,0,1-.37,2.81c-2.89.12-6,0-8.89.15-.2,0-.27,0-.23-.23-.25,0-.25.25-.53.23.2-.34.44-.9.15-1.29-.79,0-.79.82-1.13,1.29-.69,0-1.14.13-1.83.07.18-.7.75-1,.91-1.74-.39-.55-1,.14-1.21.45-.2.48-.56.81-.76,1.29h-1c.24-.46.49-.92.76-1.36s.63-.74.69-1.37c-.16-.28-.42,0-.69,0-.12.18-.27.34-.38.53a9.27,9.27,0,0,0-.68,1.14c-.18.21-.33,0-.53.23-.39.27-.58.73-1,1-.17-.06,0-.36.15-.38.05-.18-.09-.55.08-.61a2.28,2.28,0,0,1,.38-.91c.12-.74.52-1.2.68-1.9-.56.1-.67.64-1,1a6.61,6.61,0,0,0-.69,1.29c-.17-.13,0-.58-.07-.84.12-.58.29-1.12.38-1.74A2.59,2.59,0,0,0,3,15a.71.71,0,0,0-.07-.76.53.53,0,0,0-.46.31c-.19,0-.19.5-.3.3-.05-2.59-.45-4.81-.46-7.44,0-.33-.18-.42-.22-.68,1.62,0,3.12.09,4.78.22A2.85,2.85,0,0,1,6,7.36a2,2,0,0,0-.37.31A12.56,12.56,0,0,0,5,13.82a4.48,4.48,0,0,0,1,1.44c.91.48,1.64,1.15,2.51,1.67a14.15,14.15,0,0,0,5.54,0,4.55,4.55,0,0,0,.69-.38c1.36-1.24,2.75-2.46,3-4.86V10.32a5,5,0,0,0-1.75-3.64c.33-.22,1.1,0,1.67.08h.68a7.78,7.78,0,0,1,1.45,0c.14.18.11.54.22.76-.06,1.68-.19,3.3-.15,5.08.1.46.13,1,.23,1.44A16,16,0,0,1,19.56,16.78Zm.38-11.16c-.64-.12-1.23-.29-1.89-.38.07-.34.79,0,1-.23.39-.22.3-.92.31-1.52a5.06,5.06,0,0,0,.07-1.06C19,1.48,17.63,2,16.53,2a6,6,0,0,0-.31,2.66c.17.49,1,.29,1.52.46-.14.33-.69,0-1,.07s-.71,0-1-.15c-2.29.08-4.29,0-6.53.15a17,17,0,0,0-.08-3.64h3.12c-.35.36-.92.5-1.29.83a3.22,3.22,0,0,0-1.14.91c.25.14.53-.24.76-.38s.48-.38.83-.45a5.72,5.72,0,0,1,1.67-.91,3.81,3.81,0,0,1,1,.07c1.28,0,2.45.13,3.79.08a13.05,13.05,0,0,1,2,.3,8.08,8.08,0,0,1,.3.91A25.93,25.93,0,0,1,19.94,5.62ZM14.1,1.9c.11,0,0-.09,0,0Zm0,0a3.27,3.27,0,0,0-1.37.68A3.39,3.39,0,0,0,14.1,1.9Zm1.06.6c.11,0,0-.09,0,0Zm-1.74.92a6,6,0,0,0,1.74-.92c-.44,0-.59.32-1,.38C14,3.1,13.57,3.14,13.42,3.42Zm-.69-.84c-.11,0,0,.09,0,0Zm-.68.61c.11,0,0-.09,0,0ZM12,3.26c.07,0,.07,0,.08-.07S12,3.22,12,3.26Zm-.07.08c.06,0,.07,0,.07-.08S11.9,3.29,11.9,3.34ZM11.06,4a2.1,2.1,0,0,0,.84-.61A2,2,0,0,0,11.06,4Zm2.28,1c.53,0,.75-.41,1.21-.53.29-.3.79-.38,1-.76-.56,0-.76.4-1.21.53C14,4.47,13.57,4.59,13.34,4.93ZM11.06,4c-.31-.08,0,.22,0,0Zm-.53.38s.11,0,.08-.08S10.49,4.29,10.53,4.33Zm2.81.6c-.11.05,0,.1,0,0ZM12.2,6.76c-.22-.24-.68-.24-1-.38a5.13,5.13,0,0,0-1.74.23l-.91.45c-.27.16-.45.42-.76.53s-.35.51-.69.61c0,.22-.17.28-.3.38s-.09.31-.23.38,0,.29-.07.3a18.63,18.63,0,0,0,.68,4.18c.29.62,1,.84,1.44,1.29a6.59,6.59,0,0,0,2.13.53,3.21,3.21,0,0,1,.91-.08,5.05,5.05,0,0,0,2.81-1.44,1.56,1.56,0,0,1,.45-.68c-.25-.67.3-1.1.46-1.6a8.45,8.45,0,0,0-.61-3.41c-.25-.58-.92-.75-1.36-1.14-.06,0-.16,0-.16-.08A1.33,1.33,0,0,0,12.2,6.76ZM8.78,11.08c-.11-.06-.11-.24-.15-.38C8.89,10.63,8.75,10.94,8.78,11.08Zm.08.31c0-.12.08,0,.08.07S8.86,11.47,8.86,11.39Zm.46-2.05c0-.09.07-.05.07,0S9.32,9.38,9.32,9.34ZM11,7.21c-.21.26,0,.58.07.84C10.76,8,10.49,7.16,11,7.21Zm.38,4s.05-.1.07-.08S11.39,11.18,11.37,11.16ZM12.12,14c0-.11.07,0,.16,0A.08.08,0,0,1,12.12,14Zm2.21-2.58c-.24-.05-.15.21-.38.16a1.63,1.63,0,0,1,.22-.46C14.31,11.18,14.35,11.29,14.33,11.46ZM13.19,7.67a2.45,2.45,0,0,1,.6.38,2.31,2.31,0,0,0,.38.53,21.7,21.7,0,0,1,.16,2.35c-.26.1-.44.27-.69.38a4.35,4.35,0,0,1-1.89-.45l-.54-.76V9a4.54,4.54,0,0,0,.46-.6c.23-.13.51-.2.45-.61a.45.45,0,0,1-.07-.23c.16,0,.24.16.38.23C12.75,7.84,12.84,7.62,13.19,7.67Z" fill="#231f20"/></g></g></g></symbol><symbol id="lamp" viewBox="0 0 40.22 62.41"><title>lamp</title><g id="&#x421;&#x43B;&#x43E;&#x439;_2" data-name="&#x421;&#x43B;&#x43E;&#x439; 2"><g id="&#x421;&#x43B;&#x43E;&#x439;_1-2" data-name="&#x421;&#x43B;&#x43E;&#x439; 1"><path d="M15.18,38a8,8,0,0,0,0,3.64c.5,2.63,1.69,6,2.36,9.67h5.07c.69-3.64,1.94-7.05,2.47-9.69a7.72,7.72,0,0,0,0-3.61,4.13,4.13,0,0,0-2-2.31h-6A4,4,0,0,0,15.18,38Z"/><path d="M27,58H13.21a2.24,2.24,0,0,0-2.3,2.23v2.23h18.4V60.18A2.24,2.24,0,0,0,27,58Z"/><path d="M34.14,2.23H22.41a2.3,2.3,0,0,0-4.6,0H6.07L0,27.75a5.09,5.09,0,0,1,2.63-1,4.53,4.53,0,0,1,2.93,1.38A3.14,3.14,0,0,0,7,29a3.15,3.15,0,0,0,1.45-.84,4.54,4.54,0,0,1,2.92-1.36,4.54,4.54,0,0,1,2.92,1.36,3.15,3.15,0,0,0,1.45.84,1.28,1.28,0,0,0,.58-.22,7.87,7.87,0,0,0,.87-.62,5.82,5.82,0,0,1,2-1.22,3,3,0,0,1,.93-.14A4.54,4.54,0,0,1,23,28.14a3.15,3.15,0,0,0,1.45.84,3.3,3.3,0,0,0,1.45-.85,4.5,4.5,0,0,1,2.92-1.37,4.52,4.52,0,0,1,2.92,1.37,7,7,0,0,0,.87.63,1.17,1.17,0,0,0,.58.22,3.19,3.19,0,0,0,1.44-.86,4.51,4.51,0,0,1,2.93-1.38,5.09,5.09,0,0,1,2.63,1Z"/><path d="M23.52,53.5H16.66a1.11,1.11,0,1,0,0,2.22h6.9a1.11,1.11,0,1,0,0-2.22Z"/><path d="M20.11,29a1.37,1.37,0,0,0-.58.21c-.16.1-.37.27-.57.41v3.74h2.3V29.63A2.76,2.76,0,0,0,20.11,29Z"/></g></g></symbol><symbol id="lego" viewBox="0 0 60 59.62"><title>lego</title><g id="&#x421;&#x43B;&#x43E;&#x439;_2" data-name="&#x421;&#x43B;&#x43E;&#x439; 2"><g id="&#x421;&#x43B;&#x43E;&#x439;_1-2" data-name="&#x421;&#x43B;&#x43E;&#x439; 1"><path d="M0,43.68,27.44,59.61V36.27L0,20.33ZM51.35,12.44v2.45c0,1.82-3.46,3.29-7.73,3.29s-7.73-1.47-7.73-3.29V10.83h0c.26,1.72,3.61,3.07,7.71,3.07,4.27,0,7.72-1.47,7.72-3.28s-3.45-3.29-7.72-3.29c-.34,0-.68,0-1,0l-5-2.89V7.56c0,1.82-3.46,3.29-7.72,3.29a12.61,12.61,0,0,1-6.44-1.47,4.16,4.16,0,0,0-.73-.59,1.79,1.79,0,0,1-.56-1.23v-3L17.38,7.36l-1.05,0c-4.27,0-7.73,1.47-7.73,3.29s3.46,3.28,7.73,3.28c4.09,0,7.44-1.35,7.7-3.07h0v4.06c0,1.82-3.45,3.29-7.72,3.29S8.6,16.71,8.6,14.89V12.47L2.65,15.92l27.53,16L57.53,16ZM37.7,22.6c0,1.82-3.46,3.29-7.72,3.29s-7.73-1.47-7.73-3.29V18.54h0c.26,1.72,3.6,3.08,7.71,3.08s7.44-1.36,7.7-3.08h0V22.6ZM32.56,36.48V59.62L60,43.68V20.54ZM29.92,6.57c4.26,0,7.72-1.47,7.72-3.28S34.18,0,29.92,0s-7.73,1.47-7.73,3.29,3.46,3.28,7.73,3.28" fill="#231f20"/></g></g></symbol><symbol id="logo-desktop" viewBox="0 0 148.05 72.71"><title>logo-desktop</title><g id="&#x421;&#x43B;&#x43E;&#x439;_2" data-name="&#x421;&#x43B;&#x43E;&#x439; 2"><g id="&#x421;&#x43B;&#x43E;&#x439;_1-2" data-name="&#x421;&#x43B;&#x43E;&#x439; 1"><g id="Layer_2" data-name="Layer 2"><path d="M143.16,31.4a39,39,0,0,1-4.65,2.77,17.6,17.6,0,0,0-.59-5.12c.05-.34.1-.67.14-1,.38-3,.66-7.13-2-9.23-.34-.26-1.25,0-1.92.28a4.84,4.84,0,0,0-.5-.42c-.08-.24-.16-.49-.23-.73s-.17-.19-.36-.22c.29-.38.26-.82-.42-1.09-.38-.15-.76-.29-1.14-.41-.07-.08-.13-.1-.17-.06h0a21.69,21.69,0,0,0-2.86-.7,5,5,0,0,1,.55-1,6,6,0,0,1,.43-.44l.19-.17.07-.06.08-.06c.38-.29.85-.87.23-1.2a2.12,2.12,0,0,0-2,.23,6.52,6.52,0,0,0-2.09,2.37,49.3,49.3,0,0,0-6.08-.08.89.89,0,0,0,.14-.25c.18-.59-.91-.53-1.19-.49-1.56.2-3.12.41-4.69.6,1.37-3.77,3.09-8.57,1-12.26C113.89.55,111.18.08,109,0a13.78,13.78,0,0,0-7,1.63c-4.76,2.62-7.11,7.71-8.21,13.14a1.85,1.85,0,0,0-2.65.47c-.12.32-.22.65-.32,1a1.6,1.6,0,0,0-.35.64,1,1,0,0,1,0,.17h-.2a2.82,2.82,0,0,0,.07-.31.66.66,0,0,0,.28-.36,69.82,69.82,0,0,1,2-6.82c.27-.76-2.51-.4-2.81.42-.42,1.2-.78,2.41-1.12,3.63a.86.86,0,0,0-.42.32,1.17,1.17,0,0,0,0,.11.8.8,0,0,0-.47-.18v-1c0-.43-2.82,0-2.82.75V15.2a2.48,2.48,0,0,0-.47.27l-.19.17a.39.39,0,0,0-.12.25s0,0,0,.07a.2.2,0,0,1-.06.07.32.32,0,0,0,0,.47,1.19,1.19,0,0,0,.74.16h.14v.46h-.67l-.41-.05c0-.39-.68-.46-1.36-.33a.38.38,0,0,0,0-.15c-.1-.6-.17-1.19-.22-1.79a3.47,3.47,0,0,0,.68-.31c.15-.1.32-.23.32-.43v-.2c0-.18-.41-.2-.5-.2a2.27,2.27,0,0,0-.58,0C82,12.38,82,11.07,82,9.76c0-.84-2.82-.31-2.82.76a52.84,52.84,0,0,0,.19,5.34h-.27V14.34c0-1.05-1.29-1.22-2.14-.81a1,1,0,0,0,.37-1,29.94,29.94,0,0,1-1-4.29c-.18-1.39-3-.67-2.82.76a31.66,31.66,0,0,0,1,4.29c.24.82,1.34.88,2.11.51a1,1,0,0,0-.38.76v.63a1.56,1.56,0,0,0-.76-.16c-1.06,0-1.68.88-1.4,1.47l-.5-.08a14.24,14.24,0,0,1-.71-3.83c0-.94-1.27-1.05-2.11-.67a.55.55,0,0,0,0-.17,13.73,13.73,0,0,1-.78-2.53c-.33-1.35-3.15-.6-2.82.75.16.64.3,1.28.52,1.9h-.06a2.86,2.86,0,0,0-.85.39c-.83.08-1.83.57-1.75,1.21.06.48.13,1,.21,1.43l-1.64.26a11.89,11.89,0,0,1-.62-2.45c-.13-.92-1.56-.85-2.33-.26a22.92,22.92,0,0,0-3.12-5.76c-2.63-3.44-7.1-4.61-11.25-3.79a9,9,0,0,0-5,2.65A5.93,5.93,0,0,0,40,10.32a19.3,19.3,0,0,0,1.58,6,2.25,2.25,0,0,0-.94.14,8,8,0,0,0-.84.38c-1.94,0-3.87,0-5.8-.07-4.18-.19-8.3-.86-12.5-.74-.92,0-1.53.72-1.46,1.26a4.32,4.32,0,0,0-2.15,2.29,52.3,52.3,0,0,0-5.33-3.21c-.69-.35-3.3.71-2.29,1.22a53.51,53.51,0,0,1,5.28,3.22,2.2,2.2,0,0,0,1.84-.07l.17-.08a9.62,9.62,0,0,0,.24,4.49.5.5,0,0,0,.17.27,8.68,8.68,0,0,0,0,1,1,1,0,0,0,0,.17,1.18,1.18,0,0,0-.76.83,40.28,40.28,0,0,0-.3,4.23,1.13,1.13,0,0,0-.49.8,50.11,50.11,0,0,0,.47,9.95,74.49,74.49,0,0,0,1.17,8c.06.42.12.83.17,1.25a9.59,9.59,0,0,0-.24,3.48c-.88.17-1.73.87-1.23,1.62a8.92,8.92,0,0,0,2.61,2.65,2.32,2.32,0,0,0-1.88.55c-.81.81-1.71,1.53-2.53,2.34a.59.59,0,0,0,.29,1.08,2.31,2.31,0,0,0,2-.54c.81-.8,1.71-1.53,2.53-2.33a.63.63,0,0,0,.2-.74c3.21,1.74,7.24,1.27,11.12,1a35.16,35.16,0,0,0-2.17,5c-.26.72,2.51.38,2.8-.43a33.77,33.77,0,0,1,2.1-4.9c3.74.12,7.48.13,11.22.05a1,1,0,0,0,.74.34,34.64,34.64,0,0,0,9.69-.7c4.79-.23,9.58-.52,14.37-.81,7.52-.18,15-.34,22.58-.32l.32.32a1.31,1.31,0,0,0,1,.33l.2,0c.71,0,1.42.09,2.14.14a1.88,1.88,0,0,0,.56,0h0l2.35.21a1.15,1.15,0,0,0,.79.36c3.8.25,7.61.52,11.42.7a1.08,1.08,0,0,0,.82.35c7.07.05,15.28,2.8,21.56-1.74.5-.36.27-.88-.26-1a1.84,1.84,0,0,0-.33,0l0,0a60.09,60.09,0,0,0,3-8.56,1.06,1.06,0,0,0,.64-.86,32.9,32.9,0,0,1,.38-3.63c.16-.89.31-1.78.44-2.66.38-2.17.8-4.37,1-6.55A50.12,50.12,0,0,0,145,32.54C146.56,31.42,144.21,30.65,143.16,31.4Zm-55.33-15a1.59,1.59,0,0,0-.13.13c.07-.32.15-.63.23-.94H88Z"/><path d="M63.26,12.63c.13.19.56.21.75.21a3,3,0,0,0,1.11-.22c.4-.17,1.1-.56.77-1.07s-.61-1.19-1-1.76c-.12-.19-.56-.21-.75-.21a2.92,2.92,0,0,0-1.1.22c-.41.17-1.11.56-.77,1.07S62.9,12.06,63.26,12.63Z"/><path d="M20.68,10.91c.22.65,1.11.65,1.65.5s1.39-.61,1.18-1.26a4.76,4.76,0,0,0-.9-1.78,1.72,1.72,0,0,0-1.9-.15c-.41.19-1.18.84-.69,1.35A3.13,3.13,0,0,1,20.68,10.91Z"/><path d="M30.66,13.9c.84,0,3.07-1.28,1.19-1.28C31,12.62,28.77,13.9,30.66,13.9Z"/><path d="M122.56,12.27a2.51,2.51,0,0,0,2-.53,5.17,5.17,0,0,0,1-1.18c.1-.2.17-.4,0-.59a1.13,1.13,0,0,0-.76-.25,2.77,2.77,0,0,0-1.1.22,1.54,1.54,0,0,0-.76.56,3.54,3.54,0,0,1-.35.51l0,0,0,0-.2.2a.67.67,0,0,0-.28.61A.67.67,0,0,0,122.56,12.27Z"/><path d="M135.86,17.69a3.53,3.53,0,0,0,1.89-.66,21.19,21.19,0,0,0,3.63-3.64c.29-.39-1-.24-1.12-.23a2.79,2.79,0,0,0-1.66.74,20.08,20.08,0,0,1-3.39,3.38C134.71,17.69,135.65,17.71,135.86,17.69Z"/><path d="M146.74,44.77h-4.87a1.61,1.61,0,0,0-1.56,1.14c-.09.74.76.92,1.31.92h4.87A1.61,1.61,0,0,0,148,45.69C148.13,45,147.29,44.77,146.74,44.77Z"/><path d="M57,60.79c-.5.08-1.41.29-1.64.83A33.82,33.82,0,0,0,54,65.51c-.21.74,2.57.34,2.8-.45a33.82,33.82,0,0,1,1.36-3.89C58.4,60.64,57.21,60.75,57,60.79Z"/><path d="M61.6,63.38a3.62,3.62,0,0,0-1,.15,4.25,4.25,0,0,0-1,.38c-.14.09-.33.2-.33.39s0,.23,0,.35a.72.72,0,0,1-.13.28h0c-.06.08-.11.18,0,.25a1.23,1.23,0,0,0,.71.06A4.09,4.09,0,0,0,61,65a2.23,2.23,0,0,0,.8-.4,1,1,0,0,0,.28-.51,2.27,2.27,0,0,0,.05-.53C62.09,63.38,61.67,63.38,61.6,63.38Z"/><path d="M116.65,67.05c-.35-.68-3,.33-2.82.76.84,1.64,1.94,3.12,2.92,4.68.44.68,3-.42,2.82-.76C118.59,70.17,117.5,68.69,116.65,67.05Z"/><path d="M120.74,64.71c-.29-.58-1.06-.56-1.62-.41-.35.09-1.49.6-1.2,1.17l1.17,2.34c.29.59,1.07.56,1.62.41.35-.09,1.49-.59,1.2-1.17Z"/><path d="M5.67,43.11c-1.49.35-3,.57-4.48,1-.54.15-1.35.64-1.16,1.32s1.12.71,1.66.56c1.48-.4,3-.61,4.48-1,.54-.13,1.34-.65,1.16-1.32S6.21,43,5.67,43.11Z"/></g><g id="Layer_1" data-name="Layer 1"><path d="M43.75,40.11c-.08-2.71-.51-5.4-.48-8.11,0-2.19.4-4.45-.36-6.56.05-.23.1-.47.14-.71.2-1.06-3.3-.5-3.85.47a.84.84,0,0,0-.38,1c0,.09.07.18.11.26a80.09,80.09,0,0,1-2.65,9.5c-.4,1.2-.89,2.37-1.31,3.57a37,37,0,0,1-1.66-3.41c-1.38-3.46-2.63-7-4.32-10.3.19-1.54-3.23-1.38-3.91,0a8.68,8.68,0,0,0-.44,5.26A47.1,47.1,0,0,1,25,37.24c.05,4,.36,8,.42,12a1,1,0,0,0-.09,1.39,3.3,3.3,0,0,0,.57.55c.92.73,3.54.11,3.53-1.28,0-4.16-.31-8.31-.42-12.47l0-1.23.18.44a34.05,34.05,0,0,0,2.2,4.7,21.14,21.14,0,0,1,1.82,4.72.77.77,0,0,0-.23.71c0,.18.07.3.25.37.65.55,1.86.27,2.53,0a5.55,5.55,0,0,0,.84-.43c.34-.21.89-.69.73-1.17l-.09-.28a24.12,24.12,0,0,0,1-4,24.42,24.42,0,0,1,1.31-4.18L39.67,39c.21,2.57,0,5.11,0,7.69a11.54,11.54,0,0,0,.22,2.49,10.11,10.11,0,0,1,.28,1.9.78.78,0,0,0,.39,1.45,3.38,3.38,0,0,0,2.8-.75c1.21-1.12.64-2.87.36-4.28C43.27,45.16,43.83,42.51,43.75,40.11Z" fill="#fff"/><path d="M52.19,40.79c-.07-2-.77-3.9-.78-5.93a48.72,48.72,0,0,0-.16-6.94c-.1-.74-4.09.1-4,1a39.3,39.3,0,0,1,.16,6.42,39.65,39.65,0,0,0,.74,6c.27,2.08-.09,4.2.15,6.28.11,1,.76,2.76.09,3.61-.42.53,1.48.34,1.57.33a4,4,0,0,0,2.32-1.05c.66-.84.2-2.45.06-3.39A55.63,55.63,0,0,1,52.19,40.79Z" fill="#fff"/><path d="M68.67,37.44c-2.08-2.81-5.94-.79-8.64-1.56-1.39-.39-1.41-2.29-1.4-3.42a36.7,36.7,0,0,0-.28-4.19,3.46,3.46,0,0,1,.75-2.93,4.79,4.79,0,0,1,.82-.34A7.37,7.37,0,0,1,61,24.91c1.56-.07,4.65.23,4,2.5-.26,1,3.63.44,3.92-.64,1.22-4.64-7.35-3.75-9.78-3.11-2.23.6-4.69,1.87-4.82,4.44-.06,1.23.28,2.4.33,3.62.06,1.41-.2,2.8.29,4.16,1.1,3,5.57,1.59,7.85,1.76,3.88.29,2.72,5.52,2.77,8,0,1.3,1.2,3.46.22,4.55-.6.67-2,.71-2.82.78s-2.22.31-2.77-.47c-1-1.43.1-3.83-.12-5.47C60,44,56,44.88,56.17,46c.34,2.65-1.41,6.2,2.42,6.65a18.18,18.18,0,0,0,7.57-.94,8.83,8.83,0,0,0,3.27-1.81c1-.94.7-2.36.42-3.57C69.17,43.42,70.59,40,68.67,37.44Z" fill="#fff"/><path d="M86.15,37.25c-.12-3.81-.69-7.58-.71-11.4,0-2-4-1.32-4,.34,0,3.65.5,7.24.69,10.87v.22c-2,0-3.93.18-5.9.25.2-4.68-.62-9.31-.44-14,0-.58-3.91-.09-4,1.06-.17,4.52.6,9,.46,13.52-.06,2.15-.25,4.3-.26,6.46a21.45,21.45,0,0,0,.33,3.29,8.26,8.26,0,0,1,.18,3.35c-.23.78,3.6.29,3.9-.7.55-1.79-.22-4.08-.41-5.89a31.33,31.33,0,0,1,.09-5.3,29.9,29.9,0,0,1,6.13,0q.14,2.09.33,4.17c.1,1.17.18,2.34.2,3.51a10.71,10.71,0,0,1-.23,3.49c-.78,2.08,3.18,1.91,3.76.37.71-1.89.51-4.24.39-6.22C86.56,42.17,86.23,39.72,86.15,37.25Z" fill="#fff"/><path d="M103.24,41.76a73.67,73.67,0,0,0-3.65-7.86c1-2,2-3.94,3-5.95.84-1.82,1.46-3.85,3.11-5.14.58-.45.55-.9-.26-1a4.56,4.56,0,0,0-2.8.75,10.91,10.91,0,0,0-3.22,4.31C98.44,29,97.46,31,96.44,33l-.23.45a1.16,1.16,0,0,0-.64,1.28c-.8,1.57-1.62,3.14-2.53,4.65-.3-5.59-1-11.16-1.16-16.75,0-1.28-4-.49-3.95,1.06.25,6.93,1.23,13.84,1.3,20.77l0,0c-.3.31-.19.5,0,.61,0,1.76-.06,3.53-.21,5.3-.47.75.47,1.15,1.1,1.15h.09c.75,0,2.65-.35,2.75-1.38.19-2.11.25-4.23.23-6.35a31.11,31.11,0,0,0,4.09-5.68,29.2,29.2,0,0,1,2,4.62c.87,2.77,2.32,5.31,3.16,8.09.55,1.82,4.5.75,4-1.06C105.56,47.07,104.18,44.51,103.24,41.76Z" fill="#fff"/><path d="M127,37.09c-.21-.84-1.39-.86-2.29-.78,0-.34,0-.68,0-1-.13-2.68-.17-5.42-.39-8.1-.22-2.48-1.6-3.37-4-3.28a24.21,24.21,0,0,0-7.55,1.42,7,7,0,0,0-4.6,5.73c-.56,3,.24,6.28.37,9.33.16,3.54.07,7.08.06,10.62,0,.58,4,0,4-1.06,0-2.8,0-5.61,0-8.41,0-.82,0-1.64-.11-2.46,1.39-.6,3.73,0,5.1.14a14.85,14.85,0,0,0,3.27-.29c0,2.33.11,4.68.21,7,0,1.19.48,3.56-.36,4.55-.44.52,1.5.35,1.57.33a4,4,0,0,0,2.32-1c1-1.13.46-3.82.41-5.17-.08-1.93-.1-3.86-.14-5.79C125.9,38.66,127.18,37.94,127,37.09Zm-14.75-.16c-.11-1.25-.22-2.51-.31-3.77-.16-2.35.12-5.64,2.31-7.07a7.44,7.44,0,0,1,2.38-.44,3.74,3.74,0,0,1,2.85.19c1.22.81.92,3.7.92,4.92,0,2,.21,4,.31,6.06a13.49,13.49,0,0,1-1.69.07C116.67,36.84,114.39,36.48,112.21,36.93Z" fill="#fff"/><path d="M48.77,25.18a3.15,3.15,0,0,0,1.49-.53l.26-.22c.52-.34,1-.84.73-1.37a8.05,8.05,0,0,1-.42-3.45c0-1-1-1.26-1.79-1.18S46.85,19,46.84,20A16.92,16.92,0,0,0,47,23a2.12,2.12,0,0,0-.1.36.67.67,0,0,0,.14.59v.14c0,.11,0,.22,0,.34a.91.91,0,0,0,.43.53A2.19,2.19,0,0,0,48.77,25.18Z" fill="#fff"/></g></g></g></symbol><symbol id="logo-developer" viewBox="0 0 56.56 71.44"><title>logo-developer</title><g id="&#x421;&#x43B;&#x43E;&#x439;_2" data-name="&#x421;&#x43B;&#x43E;&#x439; 2"><g id="&#x421;&#x43B;&#x43E;&#x439;_1-2" data-name="&#x421;&#x43B;&#x43E;&#x439; 1"><path d="M28.57.53l-.29,0L.5,3.42V54.33L28.28,70.86,56.06,54.33V3.42ZM52.43,52.27,28.28,66.63,4.13,52.27V31.4L28.18,45.71l0,2.59-16.5-9.82,0,2.52L28.26,51l0,2.67L11.75,43.77l0,2.52,16.56,10L45,46.24V43.71h0V35.49l7.45-4.44Zm0-23.93L45.8,32.23l-3,1.8L28.21,25.38l0,2.51,12.43,7.4-.11.06-.26.16-1.77,1L28.21,30.44l0,2.52,8.1,4.82-1.91,1.28,0,0-6.12-3.6,0,2.52,4,2.36-4.09,2.46L4.19,28.6l24-14.4h0Zm0-2.53L28.15,11.49h0l-24,14.3V6.69L28.28,4.16,52.43,6.69Z" stroke="#231f20" stroke-miterlimit="10"/></g></g></symbol><symbol id="logo-mobile" viewBox="0 0 85.59 35.03"><title>logo-mobile</title><g id="&#x421;&#x43B;&#x43E;&#x439;_2" data-name="&#x421;&#x43B;&#x43E;&#x439; 2"><g id="&#x421;&#x43B;&#x43E;&#x439;_1-2" data-name="&#x421;&#x43B;&#x43E;&#x439; 1"><path d="M4.18,26.3c0-3.47-.26-6.94-.36-10.41,0-.34,0-.68,0-1l.15.37a28.55,28.55,0,0,0,1.84,3.92A18,18,0,0,1,7.31,23.1a.63.63,0,0,0-.2.59c0,.15.06.25.21.31.54.46,1.55.23,2.12,0a4.52,4.52,0,0,0,.69-.36c.29-.18.75-.57.62-1a2.17,2.17,0,0,1-.07-.24,21.61,21.61,0,0,0,.81-3.31,21.27,21.27,0,0,1,1.09-3.48c0,.52.09,1,.13,1.56.17,2.15,0,4.27,0,6.43a9.6,9.6,0,0,0,.18,2.07,8.91,8.91,0,0,1,.24,1.59c-.52.48-.37,1.06.32,1.21a2.83,2.83,0,0,0,2.34-.62c1-.94.53-2.4.3-3.58-.39-2,.08-4.18,0-6.19-.07-2.26-.43-4.5-.4-6.76,0-1.84.32-3.72-.31-5.48,0-.2.08-.39.12-.6.16-.87-2.75-.41-3.21.4-.29.23-.44.52-.31.8,0,.07.05.15.08.22a64.79,64.79,0,0,1-2.21,7.93c-.34,1-.75,2-1.09,3A30.06,30.06,0,0,1,7.4,14.74C6.25,11.85,5.2,8.93,3.79,6.15,4,4.86,1.1,5,.53,6.17a7.32,7.32,0,0,0-.37,4.39,37.1,37.1,0,0,1,.32,5.15c0,3.35.3,6.69.35,10a.86.86,0,0,0-.07,1.16,2.33,2.33,0,0,0,.48.46C2,28,4.19,27.46,4.18,26.3Z"/><path d="M22.38,7.93c-.09-.61-3.42.08-3.3.88a33.05,33.05,0,0,1,.13,5.36,33.26,33.26,0,0,0,.62,5c.22,1.73-.07,3.5.12,5.23.09.81.64,2.31.08,3-.36.45,1.24.28,1.31.27a3.3,3.3,0,0,0,1.94-.87c.55-.7.16-2,0-2.83a44.22,44.22,0,0,1-.16-5.28c-.06-1.68-.64-3.26-.65-4.95A41.58,41.58,0,0,0,22.38,7.93Z"/><path d="M25.5,14.57c.91,2.52,4.65,1.33,6.55,1.48,3.24.23,2.27,4.6,2.31,6.64,0,1.08,1,2.88.18,3.79-.5.56-1.67.59-2.35.65s-1.85.26-2.31-.39c-.84-1.19.08-3.2-.1-4.57-.1-.78-3.43-.08-3.3.89.29,2.21-1.18,5.17,2,5.55a15.08,15.08,0,0,0,6.32-.78,7.47,7.47,0,0,0,2.73-1.51c.87-.79.59-2,.35-3-.57-2.46.62-5.29-1-7.45-1.73-2.35-5-.66-7.21-1.3-1.16-.33-1.17-1.91-1.17-2.86a29.08,29.08,0,0,0-.23-3.49,2.87,2.87,0,0,1,.63-2.45,3.47,3.47,0,0,1,.68-.28,6.41,6.41,0,0,1,.9-.08c1.3-.06,3.89.2,3.39,2.09-.23.85,3,.37,3.26-.54C38.18,3.1,31,3.84,29,4.38c-1.86.5-3.91,1.56-4,3.71-.05,1,.23,2,.27,3A11.44,11.44,0,0,0,25.5,14.57Z"/><path d="M40,16.44c-.05,1.8-.2,3.6-.22,5.4A19.56,19.56,0,0,0,40,24.59a6.94,6.94,0,0,1,.16,2.79c-.2.65,3,.25,3.25-.58.46-1.5-.19-3.41-.34-4.92a26.14,26.14,0,0,1,.07-4.42,25,25,0,0,1,5.12,0c.08,1.16.16,2.32.27,3.48.09,1,.15,1.95.17,2.93a8.85,8.85,0,0,1-.19,2.91c-.65,1.73,2.66,1.59,3.14.31A13.14,13.14,0,0,0,52,21.89c-.13-2.06-.4-4.11-.47-6.17-.1-3.18-.58-6.33-.59-9.52,0-1.66-3.34-1.09-3.33.29,0,3,.41,6,.57,9.07,0,.06,0,.12,0,.19-1.64,0-3.28.14-4.93.2.17-3.9-.52-7.77-.37-11.67,0-.49-3.26-.08-3.3.88C39.43,8.93,40.07,12.68,40,16.44Z"/><path d="M54,21.82c-.25.25-.15.41,0,.5,0,1.48,0,2.95-.18,4.43-.39.63.39,1,.91,1h.09c.62,0,2.2-.3,2.29-1.15a52.26,52.26,0,0,0,.19-5.3,27,27,0,0,0,3.42-4.75,25,25,0,0,1,1.67,3.86c.73,2.31,1.94,4.43,2.64,6.75.46,1.52,3.75.62,3.3-.88-.7-2.32-1.86-4.47-2.64-6.75a61.13,61.13,0,0,0-3-6.57c.85-1.64,1.7-3.28,2.47-5,.7-1.53,1.22-3.22,2.6-4.29.48-.38.46-.76-.22-.8a3.68,3.68,0,0,0-2.33.62,9.16,9.16,0,0,0-2.7,3.6c-.78,1.72-1.59,3.42-2.45,5.12-.06.12-.13.24-.19.37a1,1,0,0,0-.54,1.06C58.7,15,58,16.27,57.26,17.53c-.25-4.66-.81-9.32-1-14,0-1.06-3.35-.4-3.3.89.21,5.79,1,11.56,1.08,17.34Z"/><path d="M85.57,15.58c-.18-.7-1.16-.71-1.92-.64,0-.29,0-.57,0-.85-.11-2.24-.14-4.53-.33-6.77C83.12,5.25,82,4.51,80,4.59a20.48,20.48,0,0,0-6.3,1.18,5.88,5.88,0,0,0-3.84,4.78c-.47,2.54.2,5.24.31,7.79.13,3,.06,5.91.06,8.86,0,.49,3.29,0,3.29-.88,0-2.34,0-4.68,0-7,0-.69,0-1.38-.08-2.06,1.15-.5,3.1,0,4.25.12a12.45,12.45,0,0,0,2.73-.25c0,1.95.09,3.91.17,5.85,0,1,.41,3-.29,3.8-.37.44,1.25.29,1.31.28a3.3,3.3,0,0,0,1.94-.87c.8-.95.38-3.2.33-4.32-.06-1.61-.08-3.22-.12-4.83C84.69,16.89,85.75,16.3,85.57,15.58Zm-6.66-.16a24.78,24.78,0,0,0-5.65,0c-.09-1.05-.19-2.1-.26-3.16-.13-2,.1-4.7,1.93-5.89a5.9,5.9,0,0,1,2-.37,3.09,3.09,0,0,1,2.39.16c1,.68.76,3.08.76,4.1,0,1.69.18,3.37.26,5.06A10.93,10.93,0,0,1,78.91,15.42Z"/><path d="M18.7,4.11a.55.55,0,0,0,.12.49v.12a2.53,2.53,0,0,1,0,.28.86.86,0,0,0,.37.45,1.83,1.83,0,0,0,1.11.19,2.65,2.65,0,0,0,1.24-.44L21.77,5c.43-.28.81-.7.61-1.15A6.36,6.36,0,0,1,22,1c0-.81-.81-1-1.5-1S18.7.5,18.7,1.29a13.26,13.26,0,0,0,.09,2.52A1.49,1.49,0,0,0,18.7,4.11Z"/><path d="M80.28,33.29a19.49,19.49,0,0,0-4.85-.79c-1.61-.17-3.25-.41-4.89-.56-1.63,0-3.31,0-5,.13l-4.88.27c-6.49.29-13,.25-19.51.1S28.13,32,21.55,32c-3.29,0-6.57.1-9.87.25-1.63.28-3.24.5-4.9.91A31,31,0,0,1,2,34.2a23.76,23.76,0,0,0,5,.3c1.58,0,3.24.14,4.87.23,3.23-.17,6.49-.25,9.73-.26,6.49,0,13,.33,19.57.45s13.11.19,19.68-.11l4.91-.27c1.6-.07,3.2-.12,4.83-.06,1.62-.15,3.25-.33,4.91-.54a23.12,23.12,0,0,1,4.86-.5h.07v0a3.45,3.45,0,0,0,0-.48C80.31,33,80.31,33.17,80.28,33.29Z"/></g></g></symbol><symbol id="logo-tablet" viewBox="0 0 101.61 34.06"><title>logo-tablet</title><g id="&#x421;&#x43B;&#x43E;&#x439;_2" data-name="&#x421;&#x43B;&#x43E;&#x439; 2"><g id="&#x421;&#x43B;&#x43E;&#x439;_1-2" data-name="&#x421;&#x43B;&#x43E;&#x439; 1"><path d="M19.14,21.5c-.09-2.69-.51-5.35-.48-8,0-2.17.39-4.41-.36-6.49.05-.24.1-.48.14-.71.19-1-3.27-.5-3.81.46a.82.82,0,0,0-.38,1,2,2,0,0,1,.1.26,77.75,77.75,0,0,1-2.62,9.41c-.4,1.19-.89,2.35-1.3,3.53A36.42,36.42,0,0,1,8.79,17.5C7.42,14.07,6.18,10.6,4.51,7.3,4.7,5.77,1.3,5.93.63,7.33a8.67,8.67,0,0,0-.44,5.21,44.7,44.7,0,0,1,.38,6.12c.05,4,.36,7.94.42,11.91A1,1,0,0,0,.9,32a3,3,0,0,0,.57.55c.9.72,3.5.11,3.49-1.27C5,27.1,4.65,23,4.54,18.87c0-.4,0-.81,0-1.21.06.14.11.29.17.43a33,33,0,0,0,2.19,4.66,21.69,21.69,0,0,1,1.8,4.67.78.78,0,0,0-.23.71c0,.18.07.29.25.36a2.66,2.66,0,0,0,2.51,0,6.34,6.34,0,0,0,.82-.42c.35-.21.89-.68.73-1.16a2.29,2.29,0,0,1-.08-.28,23.73,23.73,0,0,0,1-3.93,24.13,24.13,0,0,1,1.3-4.13l.15,1.86c.21,2.55,0,5.07,0,7.62a11.26,11.26,0,0,0,.22,2.46,11.06,11.06,0,0,1,.28,1.89A.78.78,0,0,0,16,33.83a3.32,3.32,0,0,0,2.77-.75c1.2-1.1.64-2.84.36-4.24C18.66,26.5,19.21,23.88,19.14,21.5Z" fill="#231f20"/><path d="M27.5,22.17c-.07-2-.77-3.86-.78-5.87a48,48,0,0,0-.15-6.89c-.11-.72-4.06.1-3.92,1.05a38.57,38.57,0,0,1,.16,6.36,40.47,40.47,0,0,0,.73,5.9c.27,2.05-.08,4.16.15,6.21.11,1,.75,2.75.09,3.58-.42.54,1.47.35,1.55.33a3.85,3.85,0,0,0,2.31-1c.65-.83.19-2.42.05-3.36A54.58,54.58,0,0,1,27.5,22.17Z" fill="#231f20"/><path d="M43.83,18.85c-2.06-2.78-5.89-.78-8.56-1.54-1.38-.39-1.4-2.27-1.39-3.39a35.85,35.85,0,0,0-.28-4.15,3.39,3.39,0,0,1,.75-2.9,3.83,3.83,0,0,1,.81-.34,8.65,8.65,0,0,1,1.07-.1c1.54-.06,4.61.24,4,2.49-.26,1,3.6.43,3.88-.64,1.22-4.6-7.28-3.71-9.68-3.08-2.21.59-4.65,1.85-4.78,4.4A36,36,0,0,0,30,13.19c.06,1.39-.2,2.77.28,4.11,1.09,3,5.52,1.58,7.78,1.75,3.85.29,2.7,5.47,2.75,7.88,0,1.29,1.18,3.43.21,4.51-.59.66-2,.7-2.79.77s-2.2.31-2.74-.46c-1-1.42.09-3.8-.12-5.43-.12-.92-4.07-.09-3.92,1.05.34,2.63-1.4,6.15,2.4,6.6a18,18,0,0,0,7.5-.93,8.81,8.81,0,0,0,3.24-1.79c1-.94.7-2.35.42-3.55C44.32,24.78,45.73,21.42,43.83,18.85Z" fill="#231f20"/><path d="M61.16,18.66c-.13-3.78-.69-7.51-.71-11.29,0-2-4-1.31-4,.34,0,3.61.5,7.16.69,10.76a1.55,1.55,0,0,0,0,.22c-1.95,0-3.9.18-5.85.25.2-4.63-.62-9.23-.44-13.86,0-.58-3.87-.09-3.92,1-.17,4.48.59,8.92.46,13.39-.07,2.14-.25,4.27-.26,6.4a21.07,21.07,0,0,0,.33,3.27,8.48,8.48,0,0,1,.18,3.32c-.24.77,3.56.29,3.86-.7.54-1.78-.22-4-.41-5.84a31.8,31.8,0,0,1,.09-5.25,30.13,30.13,0,0,1,6.08,0c.09,1.38.19,2.76.32,4.14.11,1.15.18,2.31.2,3.47a10.81,10.81,0,0,1-.22,3.46c-.78,2.06,3.15,1.89,3.72.37.7-1.87.5-4.2.38-6.17C61.56,23.54,61.23,21.11,61.16,18.66Z" fill="#231f20"/><path d="M78.09,23.14a74.51,74.51,0,0,0-3.62-7.8c1-1.95,2-3.9,2.93-5.89.83-1.81,1.45-3.82,3.08-5.09.58-.45.55-.9-.25-1a4.43,4.43,0,0,0-2.77.74,10.65,10.65,0,0,0-3.2,4.27c-.93,2.05-1.9,4.06-2.92,6.07l-.22.45a1.13,1.13,0,0,0-.64,1.26c-.79,1.57-1.6,3.12-2.5,4.61-.3-5.53-1-11.06-1.15-16.6,0-1.27-4-.48-3.92,1,.25,6.87,1.22,13.72,1.29,20.59l0,0c-.3.31-.19.49,0,.6,0,1.75,0,3.5-.2,5.26-.48.74.46,1.13,1.08,1.13h.1c.74,0,2.62-.35,2.71-1.36a60.22,60.22,0,0,0,.24-6.29,31.1,31.1,0,0,0,4.05-5.64,29.73,29.73,0,0,1,2,4.59c.86,2.74,2.3,5.26,3.13,8,.55,1.81,4.46.74,3.92-1.05C80.39,28.4,79,25.85,78.09,23.14Z" fill="#231f20"/><path d="M101.59,18.5c-.21-.83-1.37-.85-2.27-.77,0-.33,0-.67,0-1-.12-2.67-.16-5.38-.39-8-.21-2.45-1.58-3.33-4-3.24a24,24,0,0,0-7.48,1.4,7,7,0,0,0-4.56,5.68c-.55,3,.24,6.22.37,9.25.16,3.5.07,7,.06,10.52,0,.57,3.92,0,3.92-1,0-2.78,0-5.55,0-8.33,0-.82,0-1.63-.1-2.44,1.37-.6,3.69,0,5.05.14a15.88,15.88,0,0,0,3.24-.29c0,2.31.11,4.63.21,6.94,0,1.18.47,3.53-.36,4.51-.43.52,1.48.34,1.56.33a3.91,3.91,0,0,0,2.3-1c1-1.12.46-3.79.4-5.13-.08-1.91-.1-3.82-.14-5.73C100.54,20.06,101.81,19.35,101.59,18.5ZM87,18.35c-.1-1.24-.21-2.49-.3-3.74-.16-2.33.12-5.58,2.29-7a7,7,0,0,1,2.35-.44,3.69,3.69,0,0,1,2.83.19c1.21.8.91,3.66.91,4.87,0,2,.21,4,.31,6a13.32,13.32,0,0,1-1.68.08C91.39,18.26,89.14,17.9,87,18.35Z" fill="#231f20"/><path d="M24.11,6.7a3.29,3.29,0,0,0,1.48-.52L25.84,6c.52-.34,1-.83.73-1.36a7.92,7.92,0,0,1-.42-3.42c0-.95-1-1.24-1.78-1.17S22.2.59,22.2,1.53a15.69,15.69,0,0,0,.11,3,2.47,2.47,0,0,0-.11.36.7.7,0,0,0,.15.59v.47a.94.94,0,0,0,.43.53A2.23,2.23,0,0,0,24.11,6.7Z" fill="#231f20"/></g></g></symbol><symbol id="lupa" viewBox="0 0 17.6 17.6"><title>lupa</title><g id="&#x421;&#x43B;&#x43E;&#x439;_2" data-name="&#x421;&#x43B;&#x43E;&#x439; 2"><g id="&#x421;&#x43B;&#x43E;&#x439;_1-2" data-name="&#x421;&#x43B;&#x43E;&#x439; 1"><path d="M17.27,15.73l-3.42-3.42A7.62,7.62,0,0,0,15.4,7.7a7.74,7.74,0,1,0-3.09,6.15l3.42,3.42a1,1,0,0,0,.77.33,1.1,1.1,0,0,0,1.1-1.1A1,1,0,0,0,17.27,15.73ZM2.2,7.7a5.5,5.5,0,1,1,5.5,5.5A5.5,5.5,0,0,1,2.2,7.7Z" fill="#231f20"/></g></g></symbol><symbol id="map-point" viewBox="0 0 66 100.8"><title>map-point</title><g id="&#x421;&#x43B;&#x43E;&#x439;_2" data-name="&#x421;&#x43B;&#x43E;&#x439; 2"><g id="&#x421;&#x43B;&#x43E;&#x439;_1-2" data-name="&#x421;&#x43B;&#x43E;&#x439; 1"><path d="M56.33,9.23a34.09,34.09,0,0,0-46.66,0,30.48,30.48,0,0,0,0,44.54S33,75.6,33,100.8c0-25.2,23.34-47,23.34-47A30.47,30.47,0,0,0,56.33,9.23Z" fill="#fff"/><path d="M47,45.52c-.64-3.27.13-6.94,0-10.28C47,31.48,46.35,27.75,46.4,24c0-3,.54-6.17-.5-9.09.06-.33.13-.66.19-1,.27-1.47-4.58-.69-5.34.65-.48.39-.72.86-.52,1.33.05.13.1.25.14.37A109.92,109.92,0,0,1,36.7,29.43c-.56,1.67-1.24,3.29-1.81,5a48.06,48.06,0,0,1-2.3-4.73c-1.93-4.8-3.66-9.66-6-14.28.26-2.14-4.49-1.92-5.43,0-1.13,2.37-1,4.76-.61,7.3a62.72,62.72,0,0,1,.53,8.55c.07,5.57.5,11.12.58,16.69a1.4,1.4,0,0,0-.12,1.92,3.9,3.9,0,0,0,.8.77c1.26,1,4.9.15,4.89-1.78,0-5.77-.44-11.53-.59-17.3l0-1.69.24.61A46.5,46.5,0,0,0,29.91,37a30.27,30.27,0,0,1,2.52,6.55,1.08,1.08,0,0,0-.33,1c-.05.25.1.41.35.5.9.77,2.58.39,3.52,0a8.31,8.31,0,0,0,1.15-.59c.49-.3,1.24-1,1-1.62L38,42.42a34.24,34.24,0,0,0,1.35-5.5,34.72,34.72,0,0,1,1.82-5.79l.21,2.6c.29,3.57.05,7.1,0,10.67a16.59,16.59,0,0,0,.31,3.45,14.36,14.36,0,0,1,.39,2.64,1.09,1.09,0,0,0,.54,2,4.66,4.66,0,0,0,3.88-1C48.21,49.91,47.41,47.48,47,45.52Z" fill="#6bc6b3"/></g></g></symbol><symbol id="phone" viewBox="0 0 24.83 24.33"><title>phone</title><g id="&#x421;&#x43B;&#x43E;&#x439;_2" data-name="&#x421;&#x43B;&#x43E;&#x439; 2"><g id="&#x421;&#x43B;&#x43E;&#x439;_1-2" data-name="&#x421;&#x43B;&#x43E;&#x439; 1"><g id="UrwUhy"><path d="M17.32,24.33H16.21A17.19,17.19,0,0,1,5.1,18.56,19.34,19.34,0,0,1,0,6.82V5.46A3.35,3.35,0,0,1,1.07,3.37,4.52,4.52,0,0,1,3.59,1.82,3.18,3.18,0,0,1,5.82,2.89,7.51,7.51,0,0,1,6.6,5.26,8.81,8.81,0,0,1,7.08,8c-.18,1.2-1.76,1.7-2.23,2.57a16.68,16.68,0,0,0,7.47,8.35c.85-.47,1.6-1.87,2.77-1.89a4.77,4.77,0,0,1,1.4.34c.48.14.9.32,1.32.48.7.27,2,.62,2.37,1.21a3.46,3.46,0,0,1,.58,2.23C20.57,22.51,18.54,23.88,17.32,24.33Z"/></g><path d="M12.53,1.53A10.77,10.77,0,0,1,23.3,12.3h1.53A12.3,12.3,0,0,0,12.53,0Z"/><path d="M12.53,9.33v1.55A1.43,1.43,0,0,1,14,12.3H15.5A3,3,0,0,0,12.53,9.33Z"/><path d="M12.53,6.25a6.05,6.05,0,0,1,6,6.05h1.59a7.64,7.64,0,0,0-7.64-7.64Z"/></g></g></symbol><symbol id="twitter" viewBox="0 0 23.49 20.17"><title>twitter</title><g id="&#x421;&#x43B;&#x43E;&#x439;_2" data-name="&#x421;&#x43B;&#x43E;&#x439; 2"><g id="&#x421;&#x43B;&#x43E;&#x439;_1-2" data-name="&#x421;&#x43B;&#x43E;&#x439; 1"><g id="twitter"><path d="M23.45,4.08c-.22-.36-.91-.27-1.4-.37H20.93c.15-.35.35-.64.52-1a5.23,5.23,0,0,0,.23-1.26c.12-.17.17-.42.29-.59s.24-.48.08-.67-.3-.25-.6-.22a.48.48,0,0,0-.22.15c-.45.43-.78,1-1.26,1.4,0,0-.06,0-.07,0s0,.05-.08.08-.26.15-.37.22a2.74,2.74,0,0,1-.89.52A6,6,0,0,0,16.71,2a6.37,6.37,0,0,0-3,.74,7.41,7.41,0,0,0-2.15,1.63c0,.32-.34.4-.37.74,0,0,0,.09-.07.08a1.12,1.12,0,0,1-.08.51c0,.14.2.43,0,.52a7.18,7.18,0,0,1-2.14-1A10.1,10.1,0,0,1,6.78,4.16,6.09,6.09,0,0,1,5,2.82c-.21-.31-.54-.49-.66-.89C4,1.77,4.16,1,3.59,1.05c-.31-.05-.34.2-.44.37s-.36.23-.37.51c0,.05,0,.09-.08.08a18.55,18.55,0,0,0-.51,3.26,3.2,3.2,0,0,0,.59,1,1.1,1.1,0,0,0-.89.52,3.73,3.73,0,0,0,.74,2.29,3,3,0,0,0,.59,1c0,.23.21.28.3.44s.12.13.15.22.29.18.07.22c-.41.14-1,.07-1.26.38a1.91,1.91,0,0,0,0,1.11c0,.23.29.26.3.52.5.41,1.08.74,1.63,1.11a16.36,16.36,0,0,0,1.85.37,1.46,1.46,0,0,1-.59.74,19.92,19.92,0,0,1-2.74.74,15,15,0,0,1-1.56.22c-.33.13-.85.08-1.11.22s-.1.1-.22.23a.71.71,0,0,0,.44.89c0,.25.22.27.37.37a.83.83,0,0,0,.45.37,10.58,10.58,0,0,0,1.92,1.11c.83.18,1.65.37,2.52.52s1.9.12,2.82.22h1a10,10,0,0,0,1.85.07c.1-.1.33-.07.52-.07a9.37,9.37,0,0,0,1.63-.74c.58-.24,1-.64,1.56-.89a10.16,10.16,0,0,0,2.52-2.37,1.67,1.67,0,0,0,.44-.74c.27-.16.39-.46.6-.67a9.82,9.82,0,0,0,1-1.41c.32-.49.58-1,.89-1.55,0-.41.31-.49.3-.89.19-.23.18-.67.37-.89a1.37,1.37,0,0,1,.08-.6,12.33,12.33,0,0,0-.3-3.4,5.93,5.93,0,0,0,1.63-.6C23.16,5.16,23.64,4.76,23.45,4.08ZM20,8.16a4.7,4.7,0,0,1-1,2c.06.38-.11.54-.08.89a4.88,4.88,0,0,0-.37,1c-.2.26-.33.6-.52.89-.36.54-.77,1-1.18,1.55A18.83,18.83,0,0,1,15.52,16c-.42.5-.94.89-1.4,1.34a4.85,4.85,0,0,0-1.26.66,4.11,4.11,0,0,0-.67.3c-.18.15-.5.15-.67.3A25.2,25.2,0,0,1,8,18.76a25.49,25.49,0,0,1-3-.38,11.73,11.73,0,0,1-2.3-1c.15-.24.64-.16,1-.22,0-.17.4,0,.45-.15.26.06.28-.11.52-.08a9.44,9.44,0,0,0,1.7-.59c.28-.14.41-.43.67-.59a.74.74,0,0,1,.22-.45,2,2,0,0,0,.15-.81c.11-.21.3-.34.3-.67-.08-.15-.13-.32-.3-.37s-.38-.07-.45-.22a1.34,1.34,0,0,1-.59-.08c-.15,0-.48.09-.52-.07a3.57,3.57,0,0,1-1.85-.74c.43-.26,1-.35,1.33-.74.52-.08,1.06-.13,1.12-.67,0-.72-.77-.66-1.34-.81A12.69,12.69,0,0,1,3.22,7.57c.24-.16.57-.23.74-.45.46.06.54-.25.67-.52,0-.49-.33-.6-.59-.81a3.38,3.38,0,0,1-.67-.74,18.08,18.08,0,0,1,.08-2.37c.06,0,.07,0,.07.07.23.44.56.77.82,1.18A8.76,8.76,0,0,0,5.89,5.05c.45.41,1.11.62,1.56,1A17,17,0,0,1,9.15,7c.67.2,1.06.68,2,.6l.6-.3c.25-.46-.06-1.08.14-1.63a4.42,4.42,0,0,1,1.26-1.48A9.54,9.54,0,0,0,14,3.64a5.18,5.18,0,0,0,1-.37,6.34,6.34,0,0,0,1-.15h1.26a7.43,7.43,0,0,0,.74.15,1.82,1.82,0,0,0,.67.37,4.45,4.45,0,0,1,1.4,3A12.13,12.13,0,0,0,20,8.16Zm.3-5.63c-.13.34-.23.7-.59.81,0-.1-.12-.12-.15-.22s.21-.19.3-.3.24-.24.44-.29C20.33,2.44,20.45,2.48,20.34,2.53Zm-5.48,3a1.44,1.44,0,0,0,.52.37.72.72,0,0,0,.59.37c0-.15.35,0,.37-.23.17,0,.17-.22.3-.29a2.42,2.42,0,0,0-.37-1.34A.94.94,0,0,0,14.86,5.57Z" fill="#231f20"/></g></g></g></symbol><symbol id="video" viewBox="0 0 100.68 76.89" width="101" height="77"><title>video</title><g id="&#x421;&#x43B;&#x43E;&#x439;_2" data-name="&#x421;&#x43B;&#x43E;&#x439; 2"><g id="&#x421;&#x43B;&#x43E;&#x439;_1-2" data-name="&#x421;&#x43B;&#x43E;&#x439; 1"><path d="M97,18.15s-.92-7-3.79-10.08C89.54,4,85.5,4,83.63,3.77c-13.33-1-33.3-1-33.3-1h0s-20,0-33.31,1C15.1,4,11.06,4,7.43,8.07c-2.84,3.1-3.78,10.08-3.78,10.08s-.9,8.21-.9,16.42v7.7a163.71,163.71,0,0,0,1,16.42s.92,7,3.78,10.08c3.63,4,8.37,3.91,10.49,4.35,7.62.77,32.36,1,32.36,1s20,0,33.32-1c1.87-.23,5.91-.25,9.54-4.3C96,65.73,97,58.72,97,58.72a163.78,163.78,0,0,0,1-16.43V34.6C97.9,26.36,97,18.15,97,18.15Z" fill="#63d1bb"/><path d="M50.31,76.89h0c-1,0-24.95-.27-32.6-1h-.15l-.13,0-1.13-.17c-2.5-.32-7.16-.93-10.84-5C2.1,67,1.08,59.85,1,59.05v0c0-.35-1-8.47-1-16.74v-7.7c0-8.26.88-16.38.91-16.72v-.07C1,17,2.08,9.85,5.39,6.22A15.44,15.44,0,0,1,16.11,1.1c.19,0,.37,0,.53-.06h.12C30,0,50.07,0,50.28,0h0c.2,0,20.23,0,33.51,1H84c.16,0,.33,0,.53.06A15.42,15.42,0,0,1,95.2,6.21C98.55,9.83,99.58,17,99.68,17.79v0c0,.35,1,8.46,1,16.76v7.7a164.27,164.27,0,0,1-1,16.74v0c-.11.81-1.16,8-4.48,11.57a15.44,15.44,0,0,1-10.71,5.11l-.53.06h-.13c-13.27,1-33.33,1.06-33.53,1.06Zm-31.94-6.5c7.48.73,31.22,1,32,1s20.13,0,33.05-1l.58-.06A10,10,0,0,0,91.15,67l0,0C93,65,94,60,94.25,58.38c.06-.52.93-8.36.93-16.08V34.6c0-7.76-.9-15.63-1-16.11-.32-2.38-1.44-6.79-3.07-8.54l0,0a10,10,0,0,0-7.19-3.33l-.58-.07c-13.07-1-32.83-1-33-1h0c-.2,0-20,0-33,1l-.58.07A10,10,0,0,0,9.48,9.91l0,0c-1.83,2-2.86,6.93-3.08,8.55-.06.6-.88,8.4-.88,16.09v7.7a160.39,160.39,0,0,0,.93,16.09c.32,2.38,1.43,6.78,3.06,8.53l0,0c2.32,2.59,5.3,3,7.48,3.26C17.49,70.25,18,70.31,18.37,70.39Z" fill="#fff"/><polygon points="38.43 20.58 38.43 56.29 68.18 38.43 38.43 20.58" fill="#fff"/></g></g></symbol><symbol id="zigzag-grey" viewBox="0 0 809.25 16.19" width="768" height="15"><title>zigzag-grey</title><g id="&#x421;&#x43B;&#x43E;&#x439;_2" data-name="&#x421;&#x43B;&#x43E;&#x439; 2"><g id="&#x421;&#x43B;&#x43E;&#x439;_1-2" data-name="&#x421;&#x43B;&#x43E;&#x439; 1"><path d="M809.25,16.19c-6.34,0-9.66-3.23-12.32-5.83-2.4-2.34-4.14-4-7.91-4s-5.5,1.69-7.9,4c-2.67,2.6-6,5.83-12.33,5.83s-9.66-3.23-12.32-5.83c-2.4-2.34-4.14-4-7.91-4s-5.5,1.69-7.9,4c-2.67,2.6-6,5.83-12.33,5.83S718.67,13,716,10.36c-2.4-2.34-4.14-4-7.91-4s-5.5,1.69-7.9,4c-2.67,2.6-6,5.83-12.33,5.83s-9.66-3.23-12.32-5.83c-2.4-2.34-4.14-4-7.91-4s-5.5,1.69-7.9,4c-2.67,2.6-6,5.83-12.33,5.83s-9.66-3.23-12.32-5.83c-2.4-2.34-4.14-4-7.91-4s-5.5,1.69-7.9,4c-2.67,2.6-6,5.83-12.33,5.83s-9.66-3.23-12.32-5.83c-2.41-2.34-4.14-4-7.91-4s-5.5,1.69-7.9,4c-2.67,2.6-6,5.83-12.33,5.83s-9.66-3.23-12.32-5.83c-2.4-2.34-4.14-4-7.91-4s-5.5,1.69-7.9,4c-2.67,2.6-6,5.83-12.33,5.83s-9.66-3.23-12.32-5.83c-2.4-2.34-4.14-4-7.91-4s-5.5,1.69-7.9,4c-2.66,2.6-6,5.83-12.32,5.83s-9.66-3.23-12.33-5.83c-2.4-2.34-4.13-4-7.9-4s-5.51,1.69-7.91,4c-2.66,2.6-6,5.83-12.32,5.83s-9.66-3.23-12.33-5.83c-2.4-2.34-4.13-4-7.9-4s-5.51,1.69-7.91,4c-2.66,2.6-6,5.83-12.32,5.83S395,13,392.33,10.36c-2.4-2.34-4.13-4-7.9-4s-5.51,1.69-7.91,4c-2.66,2.6-6,5.83-12.32,5.83s-9.66-3.23-12.33-5.83c-2.4-2.34-4.13-4-7.9-4s-5.51,1.69-7.91,4c-2.67,2.6-6,5.83-12.33,5.83s-9.66-3.23-12.32-5.83c-2.4-2.34-4.14-4-7.91-4s-5.5,1.69-7.91,4c-2.66,2.6-6,5.83-12.32,5.83s-9.66-3.23-12.33-5.83c-2.4-2.34-4.13-4-7.9-4s-5.51,1.69-7.91,4c-2.66,2.6-6,5.83-12.32,5.83s-9.67-3.23-12.33-5.83c-2.4-2.34-4.14-4-7.91-4s-5.5,1.69-7.9,4c-2.67,2.6-6,5.83-12.33,5.83S192.68,13,190,10.36c-2.41-2.34-4.14-4-7.91-4s-5.51,1.69-7.91,4c-2.66,2.6-6,5.83-12.32,5.83s-9.66-3.23-12.33-5.83c-2.4-2.34-4.13-4-7.9-4s-5.51,1.69-7.91,4c-2.66,2.6-6,5.83-12.32,5.83s-9.67-3.23-12.33-5.83c-2.4-2.34-4.14-4-7.91-4s-5.51,1.69-7.91,4c-2.66,2.6-6,5.83-12.32,5.83S71.28,13,68.62,10.36c-2.4-2.34-4.14-4-7.91-4S55.2,8,52.8,10.36c-2.66,2.6-6,5.83-12.32,5.83S30.81,13,28.15,10.36c-2.4-2.34-4.14-4-7.91-4s-5.51,1.69-7.91,4C9.66,13,6.35,16.19,0,16.19V9.85c3.77,0,5.51-1.69,7.91-4C10.58,3.23,13.89,0,20.24,0S29.9,3.23,32.57,5.82c2.4,2.34,4.13,4,7.91,4s5.5-1.69,7.9-4C51.05,3.23,54.36,0,60.71,0S70.37,3.23,73,5.82c2.4,2.34,4.13,4,7.91,4s5.5-1.69,7.9-4C91.52,3.23,94.84,0,101.18,0s9.66,3.23,12.33,5.82c2.4,2.34,4.13,4,7.91,4s5.5-1.69,7.9-4C132,3.23,135.3,0,141.65,0S151.31,3.23,154,5.82c2.4,2.34,4.14,4,7.91,4s5.5-1.69,7.9-4c2.67-2.59,6-5.82,12.33-5.82s9.66,3.23,12.32,5.82c2.4,2.34,4.14,4,7.91,4s5.51-1.69,7.91-4c2.66-2.59,6-5.82,12.32-5.82s9.66,3.23,12.33,5.82c2.4,2.34,4.13,4,7.91,4s5.5-1.69,7.9-4C253.38,3.23,256.69,0,263,0s9.66,3.23,12.32,5.82c2.4,2.34,4.14,4,7.91,4s5.5-1.69,7.91-4c2.66-2.59,6-5.82,12.32-5.82s9.66,3.23,12.33,5.82c2.4,2.34,4.13,4,7.9,4s5.51-1.69,7.91-4C334.3,3.23,337.62,0,344,0s9.66,3.23,12.32,5.82c2.4,2.34,4.14,4,7.91,4s5.5-1.69,7.9-4c2.67-2.59,6-5.82,12.33-5.82s9.66,3.23,12.32,5.82c2.4,2.34,4.14,4,7.91,4s5.5-1.69,7.9-4c2.67-2.59,6-5.82,12.33-5.82s9.66,3.23,12.32,5.82c2.4,2.34,4.14,4,7.91,4s5.5-1.69,7.9-4C455.69,3.23,459,0,465.35,0S475,3.23,477.67,5.82c2.4,2.34,4.14,4,7.91,4s5.5-1.69,7.9-4c2.66-2.59,6-5.82,12.32-5.82s9.66,3.23,12.33,5.82c2.4,2.34,4.13,4,7.9,4s5.51-1.69,7.91-4c2.66-2.59,6-5.82,12.32-5.82s9.66,3.23,12.33,5.82c2.4,2.34,4.13,4,7.9,4s5.51-1.69,7.91-4c2.66-2.59,6-5.82,12.32-5.82S596.38,3.23,599,5.82c2.41,2.34,4.14,4,7.91,4s5.51-1.69,7.91-4c2.66-2.59,6-5.82,12.32-5.82s9.66,3.23,12.33,5.82c2.4,2.34,4.13,4,7.9,4s5.51-1.69,7.91-4C658,3.23,661.3,0,667.64,0S677.3,3.23,680,5.82c2.4,2.34,4.13,4,7.9,4s5.51-1.69,7.91-4c2.66-2.59,6-5.82,12.32-5.82s9.66,3.23,12.33,5.82c2.4,2.34,4.13,4,7.9,4s5.51-1.69,7.91-4c2.66-2.59,6-5.82,12.32-5.82s9.66,3.23,12.33,5.82c2.4,2.34,4.13,4,7.9,4s5.51-1.69,7.91-4C779.36,3.23,782.68,0,789,0s9.66,3.23,12.33,5.82c2.4,2.34,4.13,4,7.9,4Z" fill="#e6e7e8"/></g></g></symbol><symbol id="zigzag-white" viewBox="0 0 814.94 24.09"><title>zigzag-white</title><g id="&#x421;&#x43B;&#x43E;&#x439;_2" data-name="&#x421;&#x43B;&#x43E;&#x439; 2"><g id="&#x421;&#x43B;&#x43E;&#x439;_1-2" data-name="&#x421;&#x43B;&#x43E;&#x439; 1"><path d="M794.57,0c-10.19,0-10.19,9.92-20.37,9.92S764,0,753.83,0s-10.19,9.92-20.38,9.92S723.27,0,713.08,0s-10.19,9.92-20.37,9.92S682.52,0,672.34,0,662.15,9.92,652,9.92,641.78,0,631.59,0,621.4,9.92,611.22,9.92,601,0,590.84,0s-10.18,9.92-20.37,9.92S560.29,0,550.1,0s-10.18,9.92-20.37,9.92S519.55,0,509.36,0,499.17,9.92,489,9.92,478.8,0,468.62,0s-10.19,9.92-20.37,9.92S438.06,0,427.87,0,417.69,9.92,407.5,9.92,397.31,0,387.13,0s-10.19,9.92-20.37,9.92S356.57,0,346.38,0,336.2,9.92,326,9.92,315.82,0,305.63,0s-10.18,9.92-20.37,9.92S275.07,0,264.89,0,254.7,9.92,244.51,9.92,234.33,0,224.14,0,214,9.92,203.76,9.92,193.58,0,183.39,0,173.2,9.92,163,9.92,152.83,0,142.64,0s-10.18,9.92-20.37,9.92S112.08,0,101.89,0,91.7,9.92,81.52,9.92,71.33,0,61.14,0,51,9.92,40.76,9.92,30.57,0,20.38,0,10.19,9.92,0,9.92V24.09H814.94V9.92C804.76,9.92,804.76,0,794.57,0Z" fill="#fff"/></g></g></symbol></svg>